<svg width="22" height="22" viewBox="0 0 22 22" fill="none" xmlns="http://www.w3.org/2000/svg">
<path d="M11.2684 5.88615C11.2851 6.03947 11.3083 6.19199 11.3379 6.34349C11.3676 6.49499 11.4035 6.64488 11.4459 6.79336C11.4882 6.94184 11.5369 7.08831 11.5914 7.23255C11.6463 7.37679 11.7071 7.51862 11.7737 7.65782C11.8404 7.79703 11.9131 7.9332 11.9911 8.06614C12.0695 8.19929 12.1531 8.32881 12.2426 8.4547C12.3316 8.58077 12.4261 8.70262 12.5256 8.82064C12.6251 8.93866 12.7295 9.05224 12.8387 9.16138C12.9479 9.27053 13.0614 9.37482 13.1794 9.47448C13.2972 9.57395 13.4193 9.66836 13.5452 9.75752C13.6712 9.8467 13.8007 9.93062 13.9337 10.0087C14.0669 10.087 14.203 10.1596 14.3423 10.2264C14.4814 10.2929 14.6231 10.3537 14.7675 10.4085C14.9117 10.4632 15.0581 10.5118 15.2066 10.5542C15.3549 10.5966 15.505 10.6325 15.6566 10.6621C15.808 10.6918 15.9603 10.715 16.1139 10.7317C17.6014 10.8947 19.5213 11 22 11C19.5213 11 17.6014 11.1053 16.1139 11.2684C15.9603 11.2851 15.808 11.3083 15.6566 11.3379C15.505 11.3675 15.3549 11.4038 15.2066 11.446C15.0581 11.4883 14.9117 11.5368 14.7675 11.5916C14.6231 11.6464 14.4814 11.7072 14.3423 11.7739C14.203 11.8404 14.0669 11.913 13.9337 11.9914C13.8007 12.0696 13.6712 12.1534 13.5452 12.2426C13.4193 12.3318 13.2972 12.4261 13.1794 12.5256C13.0614 12.6252 12.9479 12.7295 12.8387 12.8387C12.7295 12.9478 12.6251 13.0614 12.5256 13.1794C12.4261 13.2975 12.3316 13.4193 12.2426 13.5454C12.1531 13.6713 12.0695 13.8007 11.9911 13.9339C11.9129 14.0669 11.8404 14.203 11.7737 14.3423C11.7071 14.4815 11.6462 14.6232 11.5914 14.7675C11.5369 14.9117 11.4882 15.0583 11.4459 15.2067C11.4035 15.3552 11.3676 15.505 11.3379 15.6566C11.3083 15.8081 11.2851 15.9606 11.2684 16.1139C11.1054 17.6013 11 19.5213 11 22C11 19.5215 10.8945 17.6013 10.7317 16.1139C10.7149 15.9606 10.6918 15.8081 10.6621 15.6566C10.6325 15.505 10.5964 15.3552 10.554 15.2067C10.5116 15.0583 10.4632 14.9117 10.4083 14.7675C10.3536 14.6232 10.293 14.4815 10.2261 14.3423C10.1593 14.203 10.087 14.0669 10.0086 13.9339C9.93044 13.8007 9.84666 13.6713 9.75746 13.5454C9.6684 13.4193 9.57391 13.2975 9.47444 13.1794C9.37481 13.0614 9.2705 12.9478 9.16134 12.8387C9.05218 12.7295 8.93862 12.6252 8.82065 12.5256C8.70255 12.4261 8.58062 12.3318 8.45474 12.2426C8.32885 12.1534 8.1993 12.0696 8.06608 11.9914C7.93315 11.913 7.79699 11.8404 7.65776 11.7739C7.51867 11.7072 7.37679 11.6464 7.23257 11.5916C7.08805 11.5368 6.94177 11.4884 6.79329 11.446C6.64481 11.4038 6.49501 11.3675 6.34345 11.3379C6.19203 11.3083 6.03945 11.2851 5.88598 11.2684C4.39854 11.1053 2.47857 11 0 11C2.47857 11 4.39854 10.8947 5.88598 10.7317C6.03945 10.715 6.19203 10.6918 6.34345 10.6621C6.49501 10.6325 6.64481 10.5966 6.79329 10.5542C6.94177 10.5118 7.08805 10.4632 7.23257 10.4085C7.37679 10.3537 7.51867 10.2929 7.65776 10.2262C7.79699 10.1596 7.93315 10.087 8.06608 10.0087C8.1993 9.93062 8.32885 9.8467 8.45474 9.75752C8.58062 9.66836 8.70255 9.57395 8.82065 9.47448C8.93862 9.37482 9.05218 9.27053 9.16134 9.16138C9.2705 9.05224 9.37481 8.93866 9.47429 8.82064C9.57391 8.70262 9.6684 8.58077 9.75746 8.4547C9.84666 8.32881 9.93044 8.19929 10.0086 8.06614C10.087 7.9332 10.1593 7.79703 10.2261 7.65782C10.293 7.51862 10.3536 7.37679 10.4083 7.23255C10.4632 7.08811 10.5116 6.94184 10.554 6.79336C10.5964 6.64488 10.6325 6.49499 10.6621 6.34349C10.6918 6.19199 10.7149 6.03947 10.7317 5.88615C10.8945 4.39872 11 2.47877 11 0C11 2.47856 11.1054 4.39872 11.2684 5.88615Z" fill="white"/>
</svg>
