<svg width="1816" height="1403" viewBox="0 0 1816 1403" fill="none" xmlns="http://www.w3.org/2000/svg">
<rect y="368.385" width="1815.09" height="187.895" fill="#44479A" fill-opacity="0.3"/>
<rect width="1815.09" height="185.118" fill="#44479A" fill-opacity="0.3"/>
<rect y="185.118" width="185.118" height="183.267" fill="#44479A" fill-opacity="0.3"/>
<rect x="1629.97" y="185.118" width="185.118" height="183.267" fill="#44479A" fill-opacity="0.3"/>
<line x1="-8.09178e-08" y1="370.237" x2="1815.09" y2="370.236" stroke="#7C81DB" stroke-width="1.85118"/>
<line x1="371.162" x2="371.162" y2="556.281" stroke="#7C81DB" stroke-width="1.85118"/>
<line x1="1630.89" x2="1630.89" y2="556.281" stroke="#7C81DB" stroke-width="1.85118"/>
<line x1="-8.09178e-08" y1="184.193" x2="1815.09" y2="184.192" stroke="#7C81DB" stroke-width="1.85118"/>
<line x1="185.118" x2="185.118" y2="556.281" stroke="#7C81DB" stroke-width="1.85118"/>
<path d="M105.567 115.699L93.9748 99.5807L90.7525 93.9596L88.7437 98.9286L75.8544 115.699H67.5684L86.9442 90.8851L69.9537 69.1148L78.8256 68.4937L89.7481 82.9037L93.096 88.9906L94.5607 84.0217L105.107 69.1148H113.476L96.7787 91.5993L114.774 115.699H105.567Z" fill="#7C81DB"/>
<path d="M1737.38 115.699L1725.79 99.5807L1722.57 93.9596L1720.56 98.9286L1707.67 115.699H1699.39L1718.76 90.8851L1701.77 69.1148L1710.64 68.4937L1721.57 82.9037L1724.91 88.9906L1726.38 84.0217L1736.92 69.1148H1745.29L1728.6 91.5993L1746.59 115.699H1737.38Z" fill="#7C81DB"/>
<path d="M105.567 485.936L93.9748 469.818L90.7525 464.196L88.7437 469.165L75.8544 485.936H67.5684L86.9442 461.122L69.9537 439.352L78.8256 438.73L89.7481 453.14L93.096 459.227L94.5607 454.258L105.107 439.352H113.476L96.7787 461.836L114.774 485.936H105.567Z" fill="#7C81DB"/>
<path d="M1737.38 485.936L1725.79 469.818L1722.57 464.196L1720.56 469.165L1707.67 485.936H1699.39L1718.76 461.122L1701.77 439.352L1710.64 438.73L1721.57 453.14L1724.91 459.227L1726.38 454.258L1736.92 439.352H1745.29L1728.6 461.836L1746.59 485.936H1737.38Z" fill="#7C81DB"/>
<mask id="mask0_24_443" style="mask-type:luminance" maskUnits="userSpaceOnUse" x="235" y="185" width="136" height="136">
<path d="M235.203 185.118H370.236V320.153H235.203V185.118Z" fill="white"/>
</mask>
<g mask="url(#mask0_24_443)">
<path d="M304.364 221.246C304.466 222.187 304.609 223.123 304.791 224.053C304.973 224.983 305.193 225.903 305.453 226.814C305.713 227.725 306.012 228.624 306.347 229.51C306.684 230.395 307.057 231.265 307.465 232.12C307.875 232.974 308.321 233.81 308.8 234.626C309.281 235.443 309.794 236.238 310.343 237.011C310.89 237.785 311.47 238.532 312.08 239.257C312.691 239.981 313.332 240.678 314.002 241.348C314.672 242.018 315.369 242.658 316.093 243.27C316.816 243.88 317.565 244.46 318.338 245.007C319.112 245.554 319.907 246.07 320.723 246.549C321.54 247.029 322.376 247.475 323.23 247.885C324.084 248.293 324.954 248.666 325.84 249.003C326.726 249.338 327.624 249.637 328.536 249.897C329.446 250.157 330.367 250.377 331.297 250.559C332.227 250.741 333.162 250.884 334.104 250.987C343.233 251.987 355.017 252.633 370.231 252.633C355.017 252.633 343.233 253.28 334.104 254.28C333.162 254.383 332.227 254.525 331.297 254.707C330.367 254.889 329.446 255.111 328.536 255.371C327.624 255.63 326.726 255.928 325.84 256.264C324.954 256.601 324.084 256.973 323.23 257.383C322.376 257.792 321.54 258.238 320.723 258.718C319.907 259.198 319.112 259.712 318.338 260.26C317.565 260.807 316.816 261.386 316.093 261.997C315.369 262.608 314.672 263.249 314.002 263.918C313.332 264.588 312.691 265.285 312.08 266.01C311.47 266.734 310.89 267.482 310.343 268.256C309.794 269.029 309.281 269.824 308.8 270.641C308.32 271.457 307.875 272.293 307.465 273.147C307.057 274.001 306.683 274.872 306.347 275.757C306.012 276.642 305.713 277.541 305.453 278.453C305.193 279.364 304.973 280.284 304.791 281.214C304.609 282.144 304.466 283.08 304.364 284.021C303.363 293.15 302.717 304.935 302.717 320.149C302.717 304.936 302.069 293.15 301.07 284.021C300.967 283.08 300.825 282.144 300.643 281.214C300.461 280.284 300.239 279.364 299.979 278.453C299.719 277.541 299.422 276.642 299.085 275.757C298.75 274.872 298.377 274.001 297.967 273.147C297.557 272.293 297.113 271.457 296.632 270.641C296.152 269.824 295.638 269.029 295.091 268.256C294.543 267.482 293.964 266.734 293.354 266.01C292.742 265.285 292.102 264.588 291.432 263.918C290.762 263.249 290.065 262.608 289.341 261.997C288.616 261.386 287.867 260.807 287.094 260.26C286.322 259.712 285.527 259.198 284.71 258.718C283.894 258.238 283.058 257.792 282.204 257.383C281.349 256.973 280.479 256.601 279.593 256.264C278.707 255.928 277.809 255.631 276.898 255.371C275.987 255.111 275.067 254.889 274.137 254.707C273.207 254.525 272.271 254.383 271.328 254.28C262.199 253.28 250.415 252.633 235.203 252.633C250.415 252.633 262.199 251.987 271.328 250.987C272.271 250.884 273.207 250.741 274.137 250.559C275.067 250.377 275.987 250.157 276.898 249.897C277.809 249.637 278.707 249.338 279.593 249.003C280.479 248.666 281.349 248.293 282.204 247.884C283.058 247.475 283.894 247.029 284.71 246.549C285.527 246.07 286.322 245.554 287.094 245.007C287.867 244.46 288.616 243.88 289.341 243.27C290.065 242.658 290.762 242.018 291.432 241.348C292.102 240.678 292.742 239.981 293.352 239.257C293.964 238.532 294.543 237.785 295.091 237.011C295.638 236.238 296.152 235.443 296.632 234.626C297.113 233.81 297.557 232.974 297.967 232.12C298.377 231.265 298.75 230.395 299.085 229.51C299.422 228.623 299.719 227.725 299.979 226.814C300.239 225.903 300.461 224.983 300.643 224.053C300.825 223.123 300.967 222.187 301.07 221.246C302.069 212.116 302.717 200.332 302.717 185.118C302.717 200.331 303.363 212.116 304.364 221.246Z" fill="white"/>
<path d="M304.364 221.246C304.466 222.187 304.609 223.123 304.791 224.053C304.973 224.983 305.193 225.903 305.453 226.814C305.713 227.725 306.012 228.624 306.347 229.51C306.684 230.395 307.057 231.265 307.465 232.12C307.875 232.974 308.321 233.81 308.8 234.626C309.281 235.443 309.794 236.238 310.343 237.011C310.89 237.785 311.47 238.532 312.08 239.257C312.691 239.981 313.332 240.678 314.002 241.348C314.672 242.018 315.369 242.658 316.093 243.27C316.816 243.88 317.565 244.46 318.338 245.007C319.112 245.554 319.907 246.07 320.723 246.549C321.54 247.029 322.376 247.475 323.23 247.885C324.084 248.293 324.954 248.666 325.84 249.003C326.726 249.338 327.624 249.637 328.536 249.897C329.446 250.157 330.367 250.377 331.297 250.559C332.227 250.741 333.162 250.884 334.104 250.987C343.233 251.987 355.017 252.633 370.231 252.633C355.017 252.633 343.233 253.28 334.104 254.28C333.162 254.383 332.227 254.525 331.297 254.707C330.367 254.889 329.446 255.111 328.536 255.371C327.624 255.63 326.726 255.928 325.84 256.264C324.954 256.601 324.084 256.973 323.23 257.383C322.376 257.792 321.54 258.238 320.723 258.718C319.907 259.198 319.112 259.712 318.338 260.26C317.565 260.807 316.816 261.386 316.093 261.997C315.369 262.608 314.672 263.249 314.002 263.918C313.332 264.588 312.691 265.285 312.08 266.01C311.47 266.734 310.89 267.482 310.343 268.256C309.794 269.029 309.281 269.824 308.8 270.641C308.32 271.457 307.875 272.293 307.465 273.147C307.057 274.001 306.683 274.872 306.347 275.757C306.012 276.642 305.713 277.541 305.453 278.453C305.193 279.364 304.973 280.284 304.791 281.214C304.609 282.144 304.466 283.08 304.364 284.021C303.363 293.15 302.717 304.935 302.717 320.149C302.717 304.936 302.069 293.15 301.07 284.021C300.967 283.08 300.825 282.144 300.643 281.214C300.461 280.284 300.239 279.364 299.979 278.453C299.719 277.541 299.422 276.642 299.085 275.757C298.75 274.872 298.377 274.001 297.967 273.147C297.557 272.293 297.113 271.457 296.632 270.641C296.152 269.824 295.638 269.029 295.091 268.256C294.543 267.482 293.964 266.734 293.354 266.01C292.742 265.285 292.102 264.588 291.432 263.918C290.762 263.249 290.065 262.608 289.341 261.997C288.616 261.386 287.867 260.807 287.094 260.26C286.322 259.712 285.527 259.198 284.71 258.718C283.894 258.238 283.058 257.792 282.204 257.383C281.349 256.973 280.479 256.601 279.593 256.264C278.707 255.928 277.809 255.631 276.898 255.371C275.987 255.111 275.067 254.889 274.137 254.707C273.207 254.525 272.271 254.383 271.328 254.28C262.199 253.28 250.415 252.633 235.203 252.633C250.415 252.633 262.199 251.987 271.328 250.987C272.271 250.884 273.207 250.741 274.137 250.559C275.067 250.377 275.987 250.157 276.898 249.897C277.809 249.637 278.707 249.338 279.593 249.003C280.479 248.666 281.349 248.293 282.204 247.884C283.058 247.475 283.894 247.029 284.71 246.549C285.527 246.07 286.322 245.554 287.094 245.007C287.867 244.46 288.616 243.88 289.341 243.27C290.065 242.658 290.762 242.018 291.432 241.348C292.102 240.678 292.742 239.981 293.352 239.257C293.964 238.532 294.543 237.785 295.091 237.011C295.638 236.238 296.152 235.443 296.632 234.626C297.113 233.81 297.557 232.974 297.967 232.12C298.377 231.265 298.75 230.395 299.085 229.51C299.422 228.623 299.719 227.725 299.979 226.814C300.239 225.903 300.461 224.983 300.643 224.053C300.825 223.123 300.967 222.187 301.07 221.246C302.069 212.116 302.717 200.332 302.717 185.118C302.717 200.331 303.363 212.116 304.364 221.246Z" fill="white"/>
</g>
<mask id="mask1_24_443" style="mask-type:luminance" maskUnits="userSpaceOnUse" x="185" y="280" width="91" height="91">
<path d="M185.118 280.211H275.22V370.236H185.118V280.211Z" fill="white"/>
</mask>
<g mask="url(#mask1_24_443)">
<path d="M231.227 304.296C231.295 304.924 231.391 305.548 231.512 306.168C231.633 306.789 231.781 307.402 231.953 308.01C232.126 308.616 232.326 309.216 232.55 309.806C232.774 310.397 233.022 310.976 233.295 311.546C233.568 312.116 233.865 312.673 234.184 313.218C234.505 313.762 234.848 314.292 235.213 314.808C235.577 315.323 235.964 315.822 236.371 316.305C236.778 316.788 237.206 317.252 237.653 317.699C238.098 318.146 238.564 318.573 239.047 318.98C239.53 319.388 240.029 319.773 240.544 320.138C241.059 320.504 241.589 320.847 242.134 321.166C242.678 321.487 243.234 321.784 243.804 322.056C244.374 322.33 244.954 322.578 245.545 322.802C246.136 323.026 246.735 323.225 247.342 323.399C247.95 323.572 248.563 323.718 249.183 323.839C249.802 323.961 250.426 324.056 251.054 324.125C257.141 324.792 264.998 325.222 275.14 325.222C264.998 325.222 257.141 325.653 251.054 326.321C250.426 326.389 249.802 326.484 249.183 326.606C248.563 326.727 247.95 326.874 247.342 327.048C246.735 327.221 246.136 327.419 245.545 327.643C244.954 327.867 244.374 328.116 243.804 328.389C243.234 328.662 242.678 328.958 242.134 329.279C241.589 329.6 241.059 329.941 240.544 330.307C240.029 330.672 239.53 331.058 239.047 331.466C238.564 331.873 238.098 332.3 237.653 332.746C237.206 333.193 236.778 333.657 236.371 334.14C235.964 334.623 235.577 335.122 235.213 335.637C234.848 336.154 234.505 336.684 234.184 337.227C233.865 337.772 233.568 338.329 233.295 338.899C233.022 339.469 232.774 340.048 232.55 340.639C232.326 341.229 232.126 341.829 231.953 342.437C231.78 343.043 231.633 343.658 231.512 344.277C231.391 344.897 231.295 345.521 231.227 346.149C230.56 352.235 230.129 360.092 230.129 370.234C230.129 360.092 229.697 352.235 229.031 346.149C228.963 345.521 228.867 344.897 228.746 344.277C228.625 343.658 228.477 343.043 228.304 342.437C228.131 341.829 227.932 341.229 227.708 340.639C227.484 340.048 227.235 339.469 226.963 338.899C226.689 338.329 226.393 337.772 226.073 337.227C225.752 336.684 225.41 336.154 225.045 335.637C224.68 335.122 224.293 334.623 223.886 334.14C223.479 333.657 223.051 333.193 222.606 332.746C222.159 332.3 221.694 331.873 221.211 331.466C220.728 331.058 220.229 330.672 219.713 330.307C219.198 329.941 218.668 329.6 218.123 329.279C217.58 328.958 217.022 328.662 216.453 328.389C215.883 328.116 215.302 327.867 214.712 327.643C214.121 327.419 213.523 327.221 212.915 327.048C212.308 326.874 211.694 326.727 211.074 326.606C210.455 326.484 209.831 326.389 209.203 326.321C203.116 325.653 195.259 325.222 185.118 325.222C195.259 325.222 203.116 324.792 209.203 324.125C209.831 324.056 210.455 323.961 211.074 323.839C211.694 323.718 212.308 323.571 212.915 323.399C213.523 323.225 214.121 323.026 214.712 322.802C215.302 322.578 215.883 322.33 216.453 322.056C217.022 321.784 217.58 321.487 218.123 321.166C218.668 320.847 219.198 320.504 219.713 320.138C220.229 319.773 220.728 319.388 221.211 318.98C221.694 318.573 222.159 318.146 222.606 317.699C223.051 317.252 223.479 316.788 223.886 316.305C224.293 315.822 224.68 315.323 225.045 314.808C225.41 314.292 225.752 313.762 226.073 313.218C226.393 312.673 226.689 312.116 226.963 311.546C227.235 310.976 227.484 310.397 227.708 309.806C227.932 309.216 228.131 308.616 228.304 308.01C228.477 307.402 228.625 306.789 228.746 306.168C228.867 305.548 228.963 304.924 229.031 304.296C229.697 298.21 230.129 290.353 230.129 280.211C230.129 290.353 230.56 298.21 231.227 304.296Z" fill="white"/>
</g>
<path d="M598.969 365.485L599.523 367.516C569.801 376.931 550.601 360.316 533.986 342.04L436.511 234.226V326.532C436.696 332.624 441.68 337.609 447.957 337.609H451.28V339.455H413.25L413.435 337.609H416.758C423.034 337.609 428.019 332.624 428.203 326.348V224.811C417.311 211.704 398.666 182.904 370.974 191.027L370.235 188.996C399.773 176.627 419.342 196.196 435.957 214.657L528.817 318.04V223.15C528.632 217.057 523.648 211.888 517.371 211.888H514.048V210.042H552.078V211.888H548.57C542.478 211.888 537.494 216.873 537.124 222.965V327.271C550.416 341.855 569.062 371.208 598.969 365.485Z" fill="white"/>
<path d="M665.95 309.548H667.796L657.089 339.455H580.66V337.609H582.875C589.336 337.609 594.69 332.255 594.69 325.978V222.596C594.69 216.688 589.152 211.888 583.06 211.888H580.66V210.042H634.566C642.505 210.042 653.212 208.196 656.535 206.719V230.165L654.689 229.98V226.842C654.689 220.934 650.258 216.134 644.351 215.765H606.69V272.81H637.889C642.874 272.81 646.935 268.749 646.935 263.764V260.995H648.781V290.164H646.935V287.579C646.935 282.595 643.058 278.533 638.074 278.349H606.69V333.732H633.274C652.843 333.732 660.227 323.578 665.95 309.548Z" fill="white"/>
<path d="M786.529 210.042H823.821V211.888H822.159C816.436 211.888 809.79 215.211 805.913 223.334L761.607 322.84C761.607 322.84 754.776 337.978 754.776 341.855H753.114L701.239 223.519C697.546 215.396 690.716 211.888 684.808 211.888H683.331V210.042H725.053V211.888H723.392C718.592 211.888 713.792 216.134 716.377 223.519L755.145 320.255L795.206 223.519C797.975 216.134 792.991 211.888 788.191 211.888H786.529V210.042Z" fill="white"/>
<path d="M927.616 309.548H929.462L918.754 339.455H842.325V337.609H844.541C851.002 337.609 856.356 332.255 856.356 325.978V222.596C856.356 216.688 850.817 211.888 844.725 211.888H842.325V210.042H896.232C904.17 210.042 914.878 208.196 918.201 206.719V230.165L916.355 229.98V226.842C916.355 220.934 911.924 216.134 906.016 215.765H868.356V272.81H899.555C904.539 272.81 908.601 268.749 908.601 263.764V260.995H910.447V290.164H908.601V287.579C908.601 282.595 904.724 278.533 899.739 278.349H868.356V333.732H894.94C914.508 333.732 921.893 323.578 927.616 309.548Z" fill="white"/>
<path d="M956.301 210.042H1005.96C1028.3 210.042 1042.15 223.334 1042.15 244.749C1042.15 262.657 1028.48 280.01 1010.76 280.01C1014.64 281.856 1020.36 287.948 1023.87 292.933C1023.87 292.933 1039.93 315.825 1046.95 323.578C1054.51 331.701 1061.35 337.424 1072.05 337.424V339.27H1061.9C1044.73 339.27 1035.5 330.04 1029.78 323.209C1027.75 320.625 1006.89 290.348 1005.41 288.687C1000.61 282.595 995.254 276.133 988.424 276.133V274.472C988.424 274.472 992.67 274.472 998.208 274.472C1007.81 274.102 1021.84 271.887 1027.01 255.272C1027.93 252.687 1028.3 248.257 1028.3 244.195C1027.75 227.396 1019.07 216.688 1005.41 215.95C995.993 215.581 984.732 215.95 982.332 215.95V325.978C982.516 332.255 987.685 337.609 994.147 337.609H996.547V339.455H956.301V337.609H958.517C964.978 337.609 970.147 332.44 970.332 325.978V223.519C970.332 217.057 964.978 211.888 958.517 211.888H956.301V210.042Z" fill="white"/>
<path d="M1170.17 309.548H1172.02L1161.31 339.455H1084.88V337.609H1087.1C1093.56 337.609 1098.91 332.255 1098.91 325.978V223.519C1098.91 217.242 1093.56 212.073 1087.1 212.073H1084.88V210.227H1125.13V212.073H1122.73C1116.26 212.073 1111.1 217.242 1110.91 223.519V333.732H1137.5C1157.06 333.732 1164.45 323.578 1170.17 309.548Z" fill="white"/>
<path d="M1252.97 207.458L1302.27 325.978C1305.96 334.101 1312.79 337.424 1318.51 337.424H1319.99V339.27H1278.45V337.609H1280.11C1284.91 337.609 1289.9 333.363 1287.13 325.978L1275.31 294.41H1225.65L1213.28 325.978C1210.7 333.363 1215.5 337.609 1220.3 337.609H1221.96V339.27H1184.67V337.424H1186.33C1192.05 337.424 1198.88 334.101 1202.57 325.978L1244.48 226.473C1244.48 226.473 1251.31 211.519 1251.31 207.458H1252.97ZM1227.87 288.871H1273.28L1250.94 229.796L1227.87 288.871Z" fill="white"/>
<path d="M1436.28 210.042H1474.31V211.888H1470.8C1464.71 211.888 1459.72 216.873 1459.35 222.965V318.409C1459.35 330.224 1461.2 342.04 1461.2 342.04H1459.54L1358.74 234.596V326.532C1358.93 332.624 1363.91 337.609 1370.19 337.609H1373.51V339.455H1335.48L1335.66 337.609H1338.99C1345.26 337.609 1350.25 332.624 1350.43 326.348V230.349C1350.43 217.796 1348.77 207.458 1348.77 207.458H1350.43L1451.05 314.717V223.15C1450.86 217.057 1445.88 211.888 1439.6 211.888H1436.28V210.042Z" fill="white"/>
<path d="M1501.09 210.227H1563.49C1602.99 210.227 1629.76 236.072 1629.76 274.841C1629.76 313.609 1602.99 339.455 1563.49 339.455H1500.9L1501.09 337.609H1503.3C1509.76 337.609 1515.12 332.44 1515.12 325.978V222.596C1515.12 216.504 1509.58 211.888 1503.49 211.888H1501.09V210.227ZM1527.12 215.765V333.732H1563.49C1595.05 333.732 1615.91 310.102 1615.91 274.841C1615.91 239.395 1594.87 215.765 1563.49 215.765H1527.12Z" fill="white"/>
<mask id="mask2_24_443" style="mask-type:luminance" maskUnits="userSpaceOnUse" x="235" y="371" width="136" height="136">
<path d="M235.203 371.162H370.236V506.197H235.203V371.162Z" fill="white"/>
</mask>
<g mask="url(#mask2_24_443)">
<path d="M304.364 407.29C304.466 408.231 304.609 409.167 304.791 410.097C304.973 411.027 305.193 411.947 305.453 412.858C305.713 413.769 306.012 414.668 306.347 415.554C306.684 416.439 307.057 417.309 307.465 418.164C307.875 419.018 308.321 419.854 308.8 420.67C309.281 421.487 309.794 422.282 310.343 423.055C310.89 423.829 311.47 424.576 312.08 425.301C312.691 426.025 313.332 426.722 314.002 427.392C314.672 428.062 315.369 428.702 316.093 429.314C316.816 429.924 317.565 430.504 318.338 431.051C319.112 431.598 319.907 432.113 320.723 432.593C321.54 433.073 322.376 433.519 323.23 433.929C324.084 434.337 324.954 434.71 325.84 435.047C326.726 435.382 327.624 435.681 328.536 435.941C329.446 436.201 330.367 436.421 331.297 436.603C332.227 436.785 333.162 436.928 334.104 437.03C343.233 438.031 355.017 438.677 370.231 438.677C355.017 438.677 343.233 439.324 334.104 440.324C333.162 440.427 332.227 440.569 331.297 440.751C330.367 440.933 329.446 441.155 328.536 441.415C327.624 441.674 326.726 441.972 325.84 442.308C324.954 442.645 324.084 443.017 323.23 443.427C322.376 443.836 321.54 444.281 320.723 444.762C319.907 445.242 319.112 445.756 318.338 446.303C317.565 446.851 316.816 447.43 316.093 448.041C315.369 448.652 314.672 449.293 314.002 449.962C313.332 450.632 312.691 451.329 312.08 452.054C311.47 452.778 310.89 453.526 310.343 454.3C309.794 455.073 309.281 455.867 308.8 456.685C308.32 457.501 307.875 458.336 307.465 459.191C307.057 460.045 306.683 460.916 306.347 461.801C306.012 462.686 305.713 463.585 305.453 464.497C305.193 465.408 304.973 466.328 304.791 467.258C304.609 468.188 304.466 469.124 304.364 470.065C303.363 479.194 302.717 490.978 302.717 506.192C302.717 490.98 302.069 479.194 301.07 470.065C300.967 469.124 300.825 468.188 300.643 467.258C300.461 466.328 300.239 465.408 299.979 464.497C299.719 463.585 299.422 462.686 299.085 461.801C298.75 460.916 298.377 460.045 297.967 459.191C297.557 458.336 297.113 457.501 296.632 456.685C296.152 455.867 295.638 455.073 295.091 454.3C294.543 453.526 293.964 452.778 293.354 452.054C292.742 451.329 292.102 450.632 291.432 449.962C290.762 449.293 290.065 448.652 289.341 448.041C288.616 447.43 287.867 446.851 287.094 446.303C286.322 445.756 285.527 445.242 284.71 444.762C283.894 444.281 283.058 443.836 282.204 443.427C281.349 443.017 280.479 442.645 279.593 442.308C278.707 441.972 277.809 441.675 276.898 441.415C275.987 441.155 275.067 440.933 274.137 440.751C273.207 440.569 272.271 440.427 271.328 440.324C262.199 439.324 250.415 438.677 235.203 438.677C250.415 438.677 262.199 438.031 271.328 437.03C272.271 436.928 273.207 436.785 274.137 436.603C275.067 436.421 275.987 436.201 276.898 435.941C277.809 435.681 278.707 435.382 279.593 435.047C280.479 434.71 281.349 434.337 282.204 433.927C283.058 433.519 283.894 433.073 284.71 432.593C285.527 432.113 286.322 431.598 287.094 431.051C287.867 430.504 288.616 429.924 289.341 429.314C290.065 428.702 290.762 428.062 291.432 427.392C292.102 426.722 292.742 426.025 293.352 425.301C293.964 424.576 294.543 423.829 295.091 423.055C295.638 422.282 296.152 421.487 296.632 420.67C297.113 419.854 297.557 419.018 297.967 418.164C298.377 417.309 298.75 416.439 299.085 415.554C299.422 414.667 299.719 413.769 299.979 412.858C300.239 411.947 300.461 411.027 300.643 410.097C300.825 409.167 300.967 408.231 301.07 407.29C302.069 398.16 302.717 386.376 302.717 371.162C302.717 386.375 303.363 398.16 304.364 407.29Z" fill="#7C81DB"/>
<path d="M304.364 407.29C304.466 408.231 304.609 409.167 304.791 410.097C304.973 411.027 305.193 411.947 305.453 412.858C305.713 413.769 306.012 414.668 306.347 415.554C306.684 416.439 307.057 417.309 307.465 418.164C307.875 419.018 308.321 419.854 308.8 420.67C309.281 421.487 309.794 422.282 310.343 423.055C310.89 423.829 311.47 424.576 312.08 425.301C312.691 426.025 313.332 426.722 314.002 427.392C314.672 428.062 315.369 428.702 316.093 429.314C316.816 429.924 317.565 430.504 318.338 431.051C319.112 431.598 319.907 432.113 320.723 432.593C321.54 433.073 322.376 433.519 323.23 433.929C324.084 434.337 324.954 434.71 325.84 435.047C326.726 435.382 327.624 435.681 328.536 435.941C329.446 436.201 330.367 436.421 331.297 436.603C332.227 436.785 333.162 436.928 334.104 437.03C343.233 438.031 355.017 438.677 370.231 438.677C355.017 438.677 343.233 439.324 334.104 440.324C333.162 440.427 332.227 440.569 331.297 440.751C330.367 440.933 329.446 441.155 328.536 441.415C327.624 441.674 326.726 441.972 325.84 442.308C324.954 442.645 324.084 443.017 323.23 443.427C322.376 443.836 321.54 444.281 320.723 444.762C319.907 445.242 319.112 445.756 318.338 446.303C317.565 446.851 316.816 447.43 316.093 448.041C315.369 448.652 314.672 449.293 314.002 449.962C313.332 450.632 312.691 451.329 312.08 452.054C311.47 452.778 310.89 453.526 310.343 454.3C309.794 455.073 309.281 455.867 308.8 456.685C308.32 457.501 307.875 458.336 307.465 459.191C307.057 460.045 306.683 460.916 306.347 461.801C306.012 462.686 305.713 463.585 305.453 464.497C305.193 465.408 304.973 466.328 304.791 467.258C304.609 468.188 304.466 469.124 304.364 470.065C303.363 479.194 302.717 490.978 302.717 506.192C302.717 490.98 302.069 479.194 301.07 470.065C300.967 469.124 300.825 468.188 300.643 467.258C300.461 466.328 300.239 465.408 299.979 464.497C299.719 463.585 299.422 462.686 299.085 461.801C298.75 460.916 298.377 460.045 297.967 459.191C297.557 458.336 297.113 457.501 296.632 456.685C296.152 455.867 295.638 455.073 295.091 454.3C294.543 453.526 293.964 452.778 293.354 452.054C292.742 451.329 292.102 450.632 291.432 449.962C290.762 449.293 290.065 448.652 289.341 448.041C288.616 447.43 287.867 446.851 287.094 446.303C286.322 445.756 285.527 445.242 284.71 444.762C283.894 444.281 283.058 443.836 282.204 443.427C281.349 443.017 280.479 442.645 279.593 442.308C278.707 441.972 277.809 441.675 276.898 441.415C275.987 441.155 275.067 440.933 274.137 440.751C273.207 440.569 272.271 440.427 271.328 440.324C262.199 439.324 250.415 438.677 235.203 438.677C250.415 438.677 262.199 438.031 271.328 437.03C272.271 436.928 273.207 436.785 274.137 436.603C275.067 436.421 275.987 436.201 276.898 435.941C277.809 435.681 278.707 435.382 279.593 435.047C280.479 434.71 281.349 434.337 282.204 433.927C283.058 433.519 283.894 433.073 284.71 432.593C285.527 432.113 286.322 431.598 287.094 431.051C287.867 430.504 288.616 429.924 289.341 429.314C290.065 428.702 290.762 428.062 291.432 427.392C292.102 426.722 292.742 426.025 293.352 425.301C293.964 424.576 294.543 423.829 295.091 423.055C295.638 422.282 296.152 421.487 296.632 420.67C297.113 419.854 297.557 419.018 297.967 418.164C298.377 417.309 298.75 416.439 299.085 415.554C299.422 414.667 299.719 413.769 299.979 412.858C300.239 411.947 300.461 411.027 300.643 410.097C300.825 409.167 300.967 408.231 301.07 407.29C302.069 398.16 302.717 386.376 302.717 371.162C302.717 386.375 303.363 398.16 304.364 407.29Z" fill="#7C81DB"/>
</g>
<mask id="mask3_24_443" style="mask-type:luminance" maskUnits="userSpaceOnUse" x="185" y="466" width="91" height="91">
<path d="M185.118 466.255H275.22V556.28H185.118V466.255Z" fill="white"/>
</mask>
<g mask="url(#mask3_24_443)">
<path d="M231.227 490.34C231.295 490.968 231.391 491.592 231.512 492.212C231.633 492.833 231.781 493.446 231.953 494.054C232.126 494.66 232.326 495.26 232.55 495.85C232.774 496.441 233.022 497.02 233.295 497.59C233.568 498.16 233.865 498.717 234.184 499.262C234.505 499.806 234.848 500.336 235.213 500.852C235.577 501.367 235.964 501.866 236.371 502.349C236.778 502.831 237.206 503.296 237.653 503.743C238.098 504.19 238.564 504.617 239.047 505.024C239.53 505.432 240.029 505.817 240.544 506.182C241.059 506.547 241.589 506.89 242.134 507.21C242.678 507.531 243.234 507.828 243.804 508.1C244.374 508.374 244.954 508.622 245.545 508.846C246.136 509.07 246.735 509.269 247.342 509.442C247.95 509.616 248.563 509.762 249.183 509.883C249.802 510.005 250.426 510.1 251.054 510.169C257.141 510.836 264.998 511.266 275.14 511.266C264.998 511.266 257.141 511.697 251.054 512.365C250.426 512.433 249.802 512.528 249.183 512.65C248.563 512.771 247.95 512.918 247.342 513.092C246.735 513.265 246.136 513.463 245.545 513.687C244.954 513.911 244.374 514.16 243.804 514.433C243.234 514.706 242.678 515.002 242.134 515.323C241.589 515.644 241.059 515.985 240.544 516.351C240.029 516.716 239.53 517.102 239.047 517.51C238.564 517.917 238.098 518.344 237.653 518.79C237.206 519.237 236.778 519.701 236.371 520.184C235.964 520.667 235.577 521.166 235.213 521.681C234.848 522.198 234.505 522.728 234.184 523.271C233.865 523.816 233.568 524.373 233.295 524.943C233.022 525.512 232.774 526.092 232.55 526.683C232.326 527.273 232.126 527.873 231.953 528.481C231.78 529.087 231.633 529.701 231.512 530.321C231.391 530.941 231.295 531.565 231.227 532.193C230.56 538.279 230.129 546.135 230.129 556.278C230.129 546.135 229.697 538.279 229.031 532.193C228.963 531.565 228.867 530.941 228.746 530.321C228.625 529.701 228.477 529.087 228.304 528.481C228.131 527.873 227.932 527.273 227.708 526.683C227.484 526.092 227.235 525.512 226.963 524.943C226.689 524.373 226.393 523.816 226.073 523.271C225.752 522.728 225.41 522.198 225.045 521.681C224.68 521.166 224.293 520.667 223.886 520.184C223.479 519.701 223.051 519.237 222.606 518.79C222.159 518.344 221.694 517.917 221.211 517.51C220.728 517.102 220.229 516.716 219.713 516.351C219.198 515.985 218.668 515.644 218.123 515.323C217.58 515.002 217.022 514.706 216.453 514.433C215.883 514.16 215.302 513.911 214.712 513.687C214.121 513.463 213.523 513.265 212.915 513.092C212.308 512.918 211.694 512.771 211.074 512.65C210.455 512.528 209.831 512.433 209.203 512.365C203.116 511.697 195.259 511.266 185.118 511.266C195.259 511.266 203.116 510.836 209.203 510.169C209.831 510.1 210.455 510.005 211.074 509.883C211.694 509.762 212.308 509.615 212.915 509.442C213.523 509.269 214.121 509.07 214.712 508.846C215.302 508.622 215.883 508.374 216.453 508.1C217.022 507.828 217.58 507.531 218.123 507.21C218.668 506.89 219.198 506.547 219.713 506.182C220.229 505.817 220.728 505.432 221.211 505.024C221.694 504.617 222.159 504.19 222.606 503.743C223.051 503.296 223.479 502.831 223.886 502.349C224.293 501.866 224.68 501.367 225.045 500.852C225.41 500.336 225.752 499.806 226.073 499.262C226.393 498.717 226.689 498.16 226.963 497.59C227.235 497.02 227.484 496.441 227.708 495.85C227.932 495.26 228.131 494.66 228.304 494.054C228.477 493.446 228.625 492.833 228.746 492.212C228.867 491.592 228.963 490.968 229.031 490.34C229.697 484.254 230.129 476.397 230.129 466.255C230.129 476.397 230.56 484.254 231.227 490.34Z" fill="#7C81DB"/>
</g>
<rect x="539.62" y="656.281" width="740.473" height="187.895" fill="#44479A" fill-opacity="0.3"/>
<rect x="539.62" y="1214.41" width="370.237" height="185.118" transform="rotate(-90 539.62 1214.41)" fill="#44479A" fill-opacity="0.3"/>
<rect x="1094.98" y="1214.41" width="370.237" height="185.118" transform="rotate(-90 1094.98 1214.41)" fill="#44479A" fill-opacity="0.3"/>
<rect x="539.62" y="1214.41" width="740.473" height="187.895" fill="#44479A" fill-opacity="0.3"/>
<path d="M1188.51 1330.11L1176.92 1313.99L1173.69 1308.37L1171.69 1313.34L1158.8 1330.11H1150.51L1169.89 1305.3L1152.9 1283.53L1161.77 1282.91L1172.69 1297.32L1176.04 1303.4L1177.5 1298.43L1188.05 1283.53H1196.42L1179.72 1306.01L1197.72 1330.11H1188.51Z" fill="#7C81DB"/>
<path d="M1188.51 771.98L1176.92 755.862L1173.69 750.241L1171.69 755.21L1158.8 771.98H1150.51L1169.89 747.166L1152.9 725.396L1161.77 724.775L1172.69 739.185L1176.04 745.272L1177.5 740.303L1188.05 725.396H1196.42L1179.72 747.881L1197.72 771.98H1188.51Z" fill="#7C81DB"/>
<path d="M624.824 771.98L613.232 755.862L610.009 750.241L608.001 755.21L595.111 771.98H586.825L606.201 747.166L589.211 725.396L598.082 724.775L609.005 739.185L612.353 745.272L613.818 740.303L624.363 725.396H632.733L616.035 747.881L634.03 771.98H624.824Z" fill="#7C81DB"/>
<path d="M624.824 1332.89L613.232 1316.77L610.009 1311.15L608.001 1316.12L595.111 1332.89H586.825L606.201 1308.07L589.211 1286.3L598.082 1285.68L609.005 1300.09L612.353 1306.18L613.818 1301.21L624.363 1286.3H632.733L616.035 1308.79L634.03 1332.89H624.824Z" fill="#7C81DB"/>
<path d="M1067.26 1194.98L1055.66 1178.86L1052.44 1173.24L1050.43 1178.2L1037.54 1194.98H1029.26L1048.63 1170.16L1031.64 1148.39L1040.52 1147.77L1051.44 1162.18L1054.79 1168.27L1056.25 1163.3L1066.8 1148.39H1075.17L1058.47 1170.88L1076.46 1194.98H1067.26Z" fill="#7C81DB"/>
<mask id="mask4_24_443" style="mask-type:luminance" maskUnits="userSpaceOnUse" x="824" y="844" width="271" height="271">
<path d="M824.908 844.177H1094.97V1114.25H824.908V844.177Z" fill="white"/>
</mask>
<g mask="url(#mask4_24_443)">
<path d="M963.23 916.432C963.435 918.314 963.72 920.186 964.084 922.046C964.448 923.906 964.889 925.746 965.409 927.568C965.929 929.391 966.526 931.189 967.197 932.96C967.87 934.73 968.616 936.471 969.433 938.18C970.253 939.889 971.144 941.56 972.103 943.192C973.063 944.827 974.091 946.417 975.188 947.962C976.283 949.51 977.442 951.005 978.663 952.454C979.884 953.903 981.166 955.297 982.506 956.637C983.846 957.977 985.24 959.257 986.689 960.48C988.135 961.701 989.633 962.86 991.178 963.955C992.726 965.049 994.316 966.079 995.948 967.038C997.582 967.999 999.254 968.89 1000.96 969.71C1002.67 970.527 1004.41 971.273 1006.18 971.946C1007.95 972.617 1009.75 973.214 1011.57 973.734C1013.39 974.254 1015.24 974.695 1017.1 975.059C1018.96 975.423 1020.83 975.708 1022.71 975.913C1040.97 977.914 1064.54 979.207 1094.96 979.207C1064.54 979.207 1040.97 980.5 1022.71 982.501C1020.83 982.706 1018.96 982.991 1017.1 983.355C1015.24 983.719 1013.39 984.162 1011.57 984.683C1009.75 985.2 1007.95 985.797 1006.18 986.468C1004.41 987.142 1002.67 987.887 1000.96 988.707C999.254 989.524 997.582 990.415 995.948 991.376C994.316 992.337 992.726 993.365 991.178 994.459C989.633 995.554 988.135 996.713 986.689 997.934C985.24 999.157 983.846 1000.44 982.506 1001.78C981.166 1003.12 979.884 1004.51 978.663 1005.96C977.442 1007.41 976.283 1008.9 975.188 1010.45C974.091 1012 973.063 1013.59 972.103 1015.22C971.142 1016.85 970.253 1018.53 969.433 1020.23C968.616 1021.94 967.868 1023.68 967.197 1025.45C966.526 1027.23 965.929 1029.02 965.409 1030.85C964.889 1032.67 964.448 1034.51 964.084 1036.37C963.72 1038.23 963.435 1040.1 963.23 1041.98C961.229 1060.24 959.936 1083.81 959.936 1114.24C959.936 1083.81 958.641 1060.24 956.642 1041.98C956.437 1040.1 956.152 1038.23 955.788 1036.37C955.424 1034.51 954.981 1032.67 954.461 1030.85C953.941 1029.02 953.346 1027.23 952.673 1025.45C952.002 1023.68 951.256 1021.94 950.437 1020.23C949.617 1018.53 948.728 1016.85 947.767 1015.22C946.806 1013.59 945.778 1012 944.684 1010.45C943.589 1008.9 942.43 1007.41 941.21 1005.96C939.986 1004.51 938.706 1003.12 937.366 1001.78C936.026 1000.44 934.632 999.157 933.183 997.934C931.735 996.713 930.237 995.554 928.691 994.459C927.146 993.365 925.556 992.337 923.922 991.376C922.29 990.415 920.618 989.524 918.91 988.707C917.201 987.887 915.46 987.142 913.689 986.468C911.916 985.797 910.121 985.203 908.298 984.683C906.475 984.162 904.636 983.719 902.776 983.355C900.916 982.991 899.044 982.706 897.159 982.501C878.901 980.5 855.333 979.207 824.908 979.207C855.333 979.207 878.901 977.914 897.159 975.913C899.044 975.708 900.916 975.423 902.776 975.059C904.636 974.695 906.475 974.254 908.298 973.734C910.121 973.214 911.916 972.617 913.689 971.946C915.46 971.273 917.201 970.527 918.91 969.707C920.618 968.89 922.29 967.999 923.922 967.038C925.556 966.079 927.146 965.049 928.691 963.955C930.237 962.86 931.735 961.701 933.183 960.48C934.632 959.257 936.026 957.977 937.366 956.637C938.706 955.297 939.986 953.903 941.207 952.454C942.43 951.005 943.589 949.51 944.684 947.962C945.778 946.417 946.806 944.827 947.767 943.192C948.728 941.56 949.617 939.889 950.437 938.18C951.256 936.471 952.002 934.73 952.673 932.96C953.346 931.186 953.941 929.391 954.461 927.568C954.981 925.746 955.424 923.906 955.788 922.046C956.152 920.186 956.437 918.314 956.642 916.432C958.641 898.173 959.936 874.605 959.936 844.177C959.936 874.602 961.229 898.173 963.23 916.432Z" fill="white"/>
<path d="M963.23 916.432C963.435 918.314 963.72 920.186 964.084 922.046C964.448 923.906 964.889 925.746 965.409 927.568C965.929 929.391 966.526 931.189 967.197 932.96C967.87 934.73 968.616 936.471 969.433 938.18C970.253 939.889 971.144 941.56 972.103 943.192C973.063 944.827 974.091 946.417 975.188 947.962C976.283 949.51 977.442 951.005 978.663 952.454C979.884 953.903 981.166 955.297 982.506 956.637C983.846 957.977 985.24 959.257 986.689 960.48C988.135 961.701 989.633 962.86 991.178 963.955C992.726 965.049 994.316 966.079 995.948 967.038C997.582 967.999 999.254 968.89 1000.96 969.71C1002.67 970.527 1004.41 971.273 1006.18 971.946C1007.95 972.617 1009.75 973.214 1011.57 973.734C1013.39 974.254 1015.24 974.695 1017.1 975.059C1018.96 975.423 1020.83 975.708 1022.71 975.913C1040.97 977.914 1064.54 979.207 1094.96 979.207C1064.54 979.207 1040.97 980.5 1022.71 982.501C1020.83 982.706 1018.96 982.991 1017.1 983.355C1015.24 983.719 1013.39 984.162 1011.57 984.683C1009.75 985.2 1007.95 985.797 1006.18 986.468C1004.41 987.142 1002.67 987.887 1000.96 988.707C999.254 989.524 997.582 990.415 995.948 991.376C994.316 992.337 992.726 993.365 991.178 994.459C989.633 995.554 988.135 996.713 986.689 997.934C985.24 999.157 983.846 1000.44 982.506 1001.78C981.166 1003.12 979.884 1004.51 978.663 1005.96C977.442 1007.41 976.283 1008.9 975.188 1010.45C974.091 1012 973.063 1013.59 972.103 1015.22C971.142 1016.85 970.253 1018.53 969.433 1020.23C968.616 1021.94 967.868 1023.68 967.197 1025.45C966.526 1027.23 965.929 1029.02 965.409 1030.85C964.889 1032.67 964.448 1034.51 964.084 1036.37C963.72 1038.23 963.435 1040.1 963.23 1041.98C961.229 1060.24 959.936 1083.81 959.936 1114.24C959.936 1083.81 958.641 1060.24 956.642 1041.98C956.437 1040.1 956.152 1038.23 955.788 1036.37C955.424 1034.51 954.981 1032.67 954.461 1030.85C953.941 1029.02 953.346 1027.23 952.673 1025.45C952.002 1023.68 951.256 1021.94 950.437 1020.23C949.617 1018.53 948.728 1016.85 947.767 1015.22C946.806 1013.59 945.778 1012 944.684 1010.45C943.589 1008.9 942.43 1007.41 941.21 1005.96C939.986 1004.51 938.706 1003.12 937.366 1001.78C936.026 1000.44 934.632 999.157 933.183 997.934C931.735 996.713 930.237 995.554 928.691 994.459C927.146 993.365 925.556 992.337 923.922 991.376C922.29 990.415 920.618 989.524 918.91 988.707C917.201 987.887 915.46 987.142 913.689 986.468C911.916 985.797 910.121 985.203 908.298 984.683C906.475 984.162 904.636 983.719 902.776 983.355C900.916 982.991 899.044 982.706 897.159 982.501C878.901 980.5 855.333 979.207 824.908 979.207C855.333 979.207 878.901 977.914 897.159 975.913C899.044 975.708 900.916 975.423 902.776 975.059C904.636 974.695 906.475 974.254 908.298 973.734C910.121 973.214 911.916 972.617 913.689 971.946C915.46 971.273 917.201 970.527 918.91 969.707C920.618 968.89 922.29 967.999 923.922 967.038C925.556 966.079 927.146 965.049 928.691 963.955C930.237 962.86 931.735 961.701 933.183 960.48C934.632 959.257 936.026 957.977 937.366 956.637C938.706 955.297 939.986 953.903 941.207 952.454C942.43 951.005 943.589 949.51 944.684 947.962C945.778 946.417 946.806 944.827 947.767 943.192C948.728 941.56 949.617 939.889 950.437 938.18C951.256 936.471 952.002 934.73 952.673 932.96C953.346 931.186 953.941 929.391 954.461 927.568C954.981 925.746 955.424 923.906 955.788 922.046C956.152 920.186 956.437 918.314 956.642 916.432C958.641 898.173 959.936 874.605 959.936 844.177C959.936 874.602 961.229 898.173 963.23 916.432Z" fill="white"/>
</g>
<mask id="mask5_24_443" style="mask-type:luminance" maskUnits="userSpaceOnUse" x="724" y="1034" width="181" height="181">
<path d="M724.738 1034.36H904.943V1214.41H724.738V1034.36Z" fill="white"/>
</mask>
<g mask="url(#mask5_24_443)">
<path d="M816.957 1082.53C817.093 1083.79 817.284 1085.04 817.526 1086.28C817.769 1087.52 818.064 1088.74 818.408 1089.96C818.755 1091.17 819.153 1092.37 819.602 1093.55C820.05 1094.73 820.545 1095.89 821.092 1097.03C821.637 1098.17 822.232 1099.29 822.87 1100.38C823.512 1101.47 824.198 1102.53 824.928 1103.56C825.656 1104.59 826.429 1105.58 827.244 1106.55C828.059 1107.52 828.913 1108.44 829.807 1109.34C830.699 1110.23 831.63 1111.09 832.595 1111.9C833.561 1112.72 834.559 1113.49 835.59 1114.22C836.62 1114.95 837.68 1115.63 838.769 1116.27C839.859 1116.91 840.971 1117.51 842.11 1118.05C843.249 1118.6 844.411 1119.1 845.592 1119.54C846.773 1119.99 847.972 1120.39 849.185 1120.74C850.401 1121.08 851.627 1121.38 852.868 1121.62C854.106 1121.86 855.354 1122.05 856.61 1122.19C868.784 1123.52 884.497 1124.39 904.782 1124.39C884.497 1124.39 868.784 1125.25 856.61 1126.58C855.354 1126.72 854.106 1126.91 852.868 1127.15C851.627 1127.39 850.401 1127.69 849.185 1128.04C847.972 1128.38 846.773 1128.78 845.592 1129.23C844.411 1129.68 843.249 1130.17 842.11 1130.72C840.971 1131.27 839.859 1131.86 838.769 1132.5C837.68 1133.14 836.62 1133.82 835.59 1134.55C834.559 1135.28 833.561 1136.06 832.595 1136.87C831.63 1137.69 830.699 1138.54 829.807 1139.43C828.913 1140.33 828.059 1141.26 827.244 1142.22C826.429 1143.19 825.656 1144.18 824.928 1145.22C824.198 1146.25 823.512 1147.31 822.87 1148.4C822.232 1149.48 821.637 1150.6 821.092 1151.74C820.545 1152.88 820.05 1154.04 819.602 1155.22C819.153 1156.4 818.755 1157.6 818.408 1158.81C818.061 1160.03 817.769 1161.26 817.526 1162.49C817.284 1163.73 817.093 1164.98 816.957 1166.24C815.622 1178.41 814.76 1194.12 814.76 1214.41C814.76 1194.12 813.896 1178.41 812.563 1166.24C812.427 1164.98 812.237 1163.73 811.994 1162.49C811.751 1161.26 811.456 1160.03 811.11 1158.81C810.763 1157.6 810.367 1156.4 809.919 1155.22C809.47 1154.04 808.973 1152.88 808.428 1151.74C807.88 1150.6 807.289 1149.48 806.647 1148.4C806.006 1147.31 805.322 1146.25 804.592 1145.22C803.861 1144.18 803.088 1143.19 802.274 1142.22C801.459 1141.26 800.605 1140.33 799.713 1139.43C798.819 1138.54 797.89 1137.69 796.925 1136.87C795.959 1136.06 794.961 1135.28 793.928 1134.55C792.898 1133.82 791.838 1133.14 790.748 1132.5C789.661 1131.86 788.547 1131.27 787.408 1130.72C786.268 1130.17 785.107 1129.68 783.926 1129.23C782.744 1128.78 781.548 1128.38 780.332 1128.04C779.119 1127.69 777.891 1127.39 776.65 1127.15C775.412 1126.91 774.163 1126.72 772.908 1126.58C760.734 1125.25 745.02 1124.39 724.738 1124.39C745.02 1124.39 760.734 1123.52 772.908 1122.19C774.163 1122.05 775.412 1121.86 776.65 1121.62C777.891 1121.38 779.119 1121.08 780.332 1120.74C781.548 1120.39 782.744 1119.99 783.926 1119.54C785.107 1119.1 786.268 1118.6 787.408 1118.05C788.547 1117.51 789.661 1116.91 790.748 1116.27C791.838 1115.63 792.898 1114.95 793.928 1114.22C794.961 1113.49 795.959 1112.72 796.925 1111.9C797.89 1111.09 798.819 1110.23 799.713 1109.34C800.605 1108.44 801.459 1107.52 802.274 1106.55C803.088 1105.58 803.861 1104.59 804.592 1103.56C805.322 1102.53 806.006 1101.47 806.647 1100.38C807.289 1099.29 807.88 1098.17 808.428 1097.03C808.973 1095.89 809.47 1094.73 809.919 1093.55C810.367 1092.37 810.763 1091.17 811.11 1089.96C811.456 1088.74 811.751 1087.52 811.994 1086.28C812.237 1085.04 812.427 1083.79 812.563 1082.53C813.896 1070.36 814.76 1054.65 814.76 1034.36C814.76 1054.65 815.622 1070.36 816.957 1082.53Z" fill="white"/>
</g>
<path d="M724.738 660.446L724.737 1400.92" stroke="#7C81DB" stroke-width="1.85118"/>
<line x1="1094.97" y1="656.281" x2="1094.97" y2="1396.75" stroke="#7C81DB" stroke-width="1.85118"/>
<line x1="1275.47" y1="1214.41" x2="534.992" y2="1214.41" stroke="#7C81DB" stroke-width="1.85118"/>
<line x1="1280.09" y1="844.176" x2="539.62" y2="844.176" stroke="#7C81DB" stroke-width="1.85118"/>
<path d="M1206.23 1330.11H1202.83L1214.33 1302.58H1217.57L1206.23 1330.11ZM1224.03 1328.49V1325.77C1224.53 1324.98 1225.07 1324.21 1225.65 1323.44C1226.23 1322.67 1226.82 1321.93 1227.42 1321.22C1228.02 1320.5 1228.61 1319.81 1229.18 1319.16C1229.75 1318.5 1230.28 1317.9 1230.77 1317.35C1231.33 1316.7 1231.87 1316.11 1232.39 1315.57C1232.92 1315.02 1233.38 1314.48 1233.78 1313.95C1234.18 1313.42 1234.5 1312.87 1234.74 1312.31C1234.98 1311.74 1235.09 1311.11 1235.09 1310.43C1235.09 1309.91 1235 1309.43 1234.8 1308.97C1234.61 1308.51 1234.33 1308.11 1233.98 1307.78C1233.63 1307.43 1233.22 1307.16 1232.73 1306.97C1232.24 1306.76 1231.71 1306.66 1231.13 1306.66C1230.47 1306.66 1229.89 1306.75 1229.41 1306.93C1228.93 1307.11 1228.51 1307.34 1228.15 1307.63C1227.79 1307.92 1227.48 1308.25 1227.21 1308.62C1226.95 1308.97 1226.7 1309.34 1226.48 1309.7L1224.19 1308.73C1224.47 1308.03 1224.83 1307.39 1225.26 1306.8C1225.7 1306.21 1226.22 1305.7 1226.82 1305.28C1227.41 1304.85 1228.09 1304.51 1228.84 1304.28C1229.6 1304.04 1230.44 1303.92 1231.37 1303.92C1232.46 1303.92 1233.43 1304.11 1234.28 1304.5C1235.14 1304.89 1235.86 1305.41 1236.44 1306.04C1237.03 1306.67 1237.48 1307.38 1237.78 1308.18C1238.1 1308.98 1238.25 1309.79 1238.25 1310.61C1238.25 1311.44 1238.1 1312.24 1237.78 1312.99C1237.48 1313.74 1237.1 1314.45 1236.63 1315.13C1236.18 1315.8 1235.69 1316.43 1235.16 1317.02C1234.63 1317.62 1234.14 1318.17 1233.7 1318.69C1233.14 1319.35 1232.58 1320 1232.02 1320.64C1231.46 1321.27 1230.92 1321.9 1230.4 1322.52C1229.89 1323.12 1229.41 1323.71 1228.97 1324.28C1228.53 1324.84 1228.15 1325.38 1227.82 1325.9H1239.16V1328.49H1224.03Z" fill="#7C81DB"/>
<path d="M1206.23 771.981H1202.83L1214.33 744.444H1217.57L1206.23 771.981ZM1224.03 770.361V767.64C1224.53 766.851 1225.07 766.074 1225.65 765.307C1226.23 764.54 1226.82 763.801 1227.42 763.088C1228.02 762.364 1228.61 761.679 1229.18 761.031C1229.75 760.372 1230.28 759.767 1230.77 759.217C1231.33 758.569 1231.87 757.975 1232.39 757.435C1232.92 756.884 1233.38 756.344 1233.78 755.815C1234.18 755.286 1234.5 754.741 1234.74 754.179C1234.98 753.607 1235.09 752.981 1235.09 752.3C1235.09 751.782 1235 751.296 1234.8 750.842C1234.61 750.378 1234.33 749.979 1233.98 749.644C1233.63 749.298 1233.22 749.028 1232.73 748.834C1232.24 748.629 1231.71 748.526 1231.13 748.526C1230.47 748.526 1229.89 748.618 1229.41 748.801C1228.93 748.974 1228.51 749.206 1228.15 749.498C1227.79 749.79 1227.48 750.119 1227.21 750.486C1226.95 750.842 1226.7 751.204 1226.48 751.571L1224.19 750.599C1224.47 749.898 1224.83 749.255 1225.26 748.672C1225.7 748.078 1226.22 747.57 1226.82 747.149C1227.41 746.717 1228.09 746.383 1228.84 746.145C1229.6 745.907 1230.44 745.789 1231.37 745.789C1232.46 745.789 1233.43 745.983 1234.28 746.372C1235.14 746.761 1235.86 747.273 1236.44 747.911C1237.03 748.537 1237.48 749.25 1237.78 750.049C1238.1 750.848 1238.25 751.658 1238.25 752.478C1238.25 753.31 1238.1 754.104 1237.78 754.859C1237.48 755.605 1237.1 756.317 1236.63 756.998C1236.18 757.667 1235.69 758.299 1235.16 758.893C1234.63 759.487 1234.14 760.043 1233.7 760.561C1233.14 761.22 1232.58 761.868 1232.02 762.505C1231.46 763.142 1230.92 763.768 1230.4 764.384C1229.89 764.989 1229.41 765.577 1228.97 766.149C1228.53 766.711 1228.15 767.251 1227.82 767.769H1239.16V770.361H1224.03Z" fill="#7C81DB"/>
<path d="M642.548 771.981H639.147L650.647 744.444H653.887L642.548 771.981ZM660.346 770.361V767.64C660.843 766.851 661.383 766.074 661.966 765.307C662.549 764.54 663.137 763.801 663.731 763.088C664.336 762.364 664.925 761.679 665.497 761.031C666.069 760.372 666.598 759.767 667.084 759.217C667.646 758.569 668.186 757.975 668.704 757.435C669.233 756.884 669.698 756.344 670.097 755.815C670.497 755.286 670.815 754.741 671.053 754.179C671.29 753.607 671.409 752.981 671.409 752.3C671.409 751.782 671.312 751.296 671.118 750.842C670.923 750.378 670.648 749.979 670.292 749.644C669.946 749.298 669.53 749.028 669.044 748.834C668.558 748.629 668.024 748.526 667.441 748.526C666.782 748.526 666.21 748.618 665.724 748.801C665.249 748.974 664.827 749.206 664.46 749.498C664.104 749.79 663.791 750.119 663.521 750.486C663.262 750.842 663.019 751.204 662.792 751.571L660.508 750.599C660.789 749.898 661.145 749.255 661.577 748.672C662.02 748.078 662.538 747.57 663.132 747.149C663.726 746.717 664.401 746.383 665.157 746.145C665.913 745.907 666.755 745.789 667.684 745.789C668.774 745.789 669.746 745.983 670.599 746.372C671.452 746.761 672.17 747.273 672.754 747.911C673.348 748.537 673.796 749.25 674.098 750.049C674.411 750.848 674.568 751.658 674.568 752.478C674.568 753.31 674.411 754.104 674.098 754.859C673.796 755.605 673.412 756.317 672.948 756.998C672.494 757.667 672.003 758.299 671.474 758.893C670.945 759.487 670.459 760.043 670.016 760.561C669.455 761.22 668.893 761.868 668.332 762.505C667.77 763.142 667.23 763.768 666.712 764.384C666.204 764.989 665.729 765.577 665.286 766.149C664.844 766.711 664.46 767.251 664.136 767.769H675.475V770.361H660.346Z" fill="#7C81DB"/>
<path d="M642.548 1332.89H639.147L650.647 1305.35H653.887L642.548 1332.89ZM660.346 1331.27V1328.55C660.843 1327.76 661.383 1326.98 661.966 1326.22C662.549 1325.45 663.137 1324.71 663.731 1324C664.336 1323.27 664.925 1322.59 665.497 1321.94C666.069 1321.28 666.598 1320.68 667.084 1320.13C667.646 1319.48 668.186 1318.88 668.704 1318.34C669.233 1317.79 669.698 1317.25 670.097 1316.72C670.497 1316.19 670.815 1315.65 671.053 1315.09C671.29 1314.52 671.409 1313.89 671.409 1313.21C671.409 1312.69 671.312 1312.2 671.118 1311.75C670.923 1311.29 670.648 1310.89 670.292 1310.55C669.946 1310.21 669.53 1309.94 669.044 1309.74C668.558 1309.54 668.024 1309.43 667.441 1309.43C666.782 1309.43 666.21 1309.53 665.724 1309.71C665.249 1309.88 664.827 1310.12 664.46 1310.41C664.104 1310.7 663.791 1311.03 663.521 1311.39C663.262 1311.75 663.019 1312.11 662.792 1312.48L660.508 1311.51C660.789 1310.81 661.145 1310.16 661.577 1309.58C662.02 1308.99 662.538 1308.48 663.132 1308.06C663.726 1307.63 664.401 1307.29 665.157 1307.05C665.913 1306.82 666.755 1306.7 667.684 1306.7C668.774 1306.7 669.746 1306.89 670.599 1307.28C671.452 1307.67 672.17 1308.18 672.754 1308.82C673.348 1309.45 673.796 1310.16 674.098 1310.96C674.411 1311.76 674.568 1312.57 674.568 1313.39C674.568 1314.22 674.411 1315.01 674.098 1315.77C673.796 1316.51 673.412 1317.23 672.948 1317.91C672.494 1318.58 672.003 1319.21 671.474 1319.8C670.945 1320.4 670.459 1320.95 670.016 1321.47C669.455 1322.13 668.893 1322.78 668.332 1323.41C667.77 1324.05 667.23 1324.68 666.712 1325.29C666.204 1325.9 665.729 1326.49 665.286 1327.06C664.844 1327.62 664.46 1328.16 664.136 1328.68H675.475V1331.27H660.346Z" fill="#7C81DB"/>
</svg>
