<svg width="1361" height="200" viewBox="0 0 1361 200" fill="none" xmlns="http://www.w3.org/2000/svg">
<path d="M247.12 194.867L247.718 197.061C215.606 207.233 194.863 189.282 176.913 169.536L71.6016 53.0559V152.782C71.801 159.364 77.1863 164.75 83.9677 164.75H87.5578V166.744H46.4705L46.67 164.75H50.2601C57.0415 164.75 62.4268 159.364 62.6262 152.583V42.8839C50.8585 28.7227 30.7138 -2.39193 0.79586 6.384L-0.00195312 4.19002C31.9105 -9.17332 53.0525 11.9687 71.0032 31.914L171.328 143.608V41.0888C171.129 34.5068 165.743 28.9222 158.962 28.9222H155.372V26.9276H196.459V28.9222H192.669C186.087 28.9222 180.702 34.3074 180.303 40.8893V153.58C194.664 169.337 214.809 201.05 247.12 194.867Z" fill="white"/>
<path d="M319.486 134.433H321.48L309.912 166.744H227.338V164.75H229.732C236.713 164.75 242.497 158.965 242.497 152.184V40.4904C242.497 34.1079 236.513 28.9222 229.931 28.9222H227.338V26.9276H285.579C294.155 26.9276 305.723 24.9331 309.313 23.3375V48.668L307.319 48.4685V45.0778C307.319 38.6953 302.532 33.5096 296.15 33.1107H255.461V94.7416H289.169C294.554 94.7416 298.942 90.3536 298.942 84.9684V81.9766H300.936V113.49H298.942V110.698C298.942 105.313 294.753 100.925 289.368 100.725H255.461V160.561H284.182C305.324 160.561 313.303 149.591 319.486 134.433Z" fill="white"/>
<path d="M449.758 26.9276H490.047V28.9222H488.252C482.069 28.9222 474.889 32.5123 470.7 41.2882L422.832 148.793C422.832 148.793 415.452 165.148 415.452 169.337H413.657L357.611 41.4877C353.622 32.7118 346.242 28.9222 339.859 28.9222H338.264V26.9276H383.34V28.9222H381.545C376.359 28.9222 371.173 33.5096 373.966 41.4877L415.851 146.001L459.132 41.4877C462.124 33.5096 456.739 28.9222 451.553 28.9222H449.758V26.9276Z" fill="white"/>
<path d="M602.186 134.433H604.181L592.613 166.744H510.039V164.75H512.433C519.414 164.75 525.198 158.965 525.198 152.184V40.4904C525.198 34.1079 519.214 28.9222 512.632 28.9222H510.039V26.9276H568.279C576.856 26.9276 588.424 24.9331 592.014 23.3375V48.668L590.02 48.4685V45.0778C590.02 38.6953 585.233 33.5096 578.85 33.1107H538.162V94.7416H571.87C577.255 94.7416 581.643 90.3536 581.643 84.9684V81.9766H583.637V113.49H581.643V110.698C581.643 105.313 577.454 100.925 572.069 100.725H538.162V160.561H566.883C588.025 160.561 596.003 149.591 602.186 134.433Z" fill="white"/>
<path d="M633.178 26.9276H686.831C710.965 26.9276 725.924 41.2882 725.924 64.4248C725.924 83.7717 711.164 102.52 692.017 102.52C696.205 104.515 702.388 111.097 706.178 116.482C706.178 116.482 723.53 141.214 731.109 149.591C739.287 158.367 746.667 164.55 758.235 164.55V166.545H747.265C728.716 166.545 718.743 156.572 712.56 149.192C710.366 146.4 687.828 113.69 686.232 111.895C681.047 105.313 675.263 98.3317 667.883 98.3317V96.5367C667.883 96.5367 672.47 96.5367 678.454 96.5367C688.825 96.1377 703.984 93.7443 709.568 75.7936C710.566 73.0012 710.965 68.2144 710.965 63.8264C710.366 45.6762 700.992 34.1079 686.232 33.3101C676.06 32.9112 663.894 33.3101 661.301 33.3101V152.184C661.5 158.965 667.085 164.75 674.066 164.75H676.659V166.744H633.178V164.75H635.571C642.552 164.75 648.137 159.165 648.336 152.184V41.4877C648.336 34.5068 642.552 28.9222 635.571 28.9222H633.178V26.9276Z" fill="white"/>
<path d="M864.241 134.433H866.235L854.667 166.744H772.094V164.75H774.487C781.468 164.75 787.252 158.965 787.252 152.184V41.4877C787.252 34.7063 781.468 29.1216 774.487 29.1216H772.094V27.1271H815.574V29.1216H812.982C806.001 29.1216 800.416 34.7063 800.217 41.4877V160.561H828.938C850.08 160.561 858.058 149.591 864.241 134.433Z" fill="white"/>
<path d="M953.7 24.1353L1006.95 152.184C1010.94 160.96 1018.32 164.55 1024.51 164.55H1026.1V166.545H981.225V164.75H983.02C988.205 164.75 993.591 160.162 990.599 152.184L977.834 118.078H924.181L910.818 152.184C908.025 160.162 913.211 164.75 918.397 164.75H920.192V166.545H879.903V164.55H881.698C887.881 164.55 895.26 160.96 899.25 152.184L944.525 44.6789C944.525 44.6789 951.905 28.5233 951.905 24.1353H953.7ZM926.574 112.094H975.64L951.506 48.2691L926.574 112.094Z" fill="white"/>
<path d="M1151.74 26.9276H1192.83V28.9222H1189.04C1182.46 28.9222 1177.07 34.3074 1176.67 40.8893V144.006C1176.67 156.771 1178.67 169.536 1178.67 169.536H1176.87L1067.97 53.4549V152.782C1068.17 159.364 1073.55 164.75 1080.34 164.75H1083.93V166.744H1042.84L1043.04 164.75H1046.63C1053.41 164.75 1058.79 159.364 1058.99 152.583V48.8674C1058.99 35.3046 1057.2 24.1353 1057.2 24.1353H1058.99L1167.7 140.017V41.0888C1167.5 34.5068 1162.11 28.9222 1155.33 28.9222H1151.74V26.9276Z" fill="white"/>
<path d="M1221.76 27.1271H1289.17C1331.86 27.1271 1360.78 55.0505 1360.78 96.9356C1360.78 138.821 1331.86 166.744 1289.17 166.744H1221.56L1221.76 164.75H1224.15C1231.13 164.75 1236.92 159.165 1236.92 152.184V40.4904C1236.92 33.9085 1230.93 28.9222 1224.35 28.9222H1221.76V27.1271ZM1249.88 33.1107V160.561H1289.17C1323.28 160.561 1345.82 135.031 1345.82 96.9356C1345.82 58.6406 1323.08 33.1107 1289.17 33.1107H1249.88Z" fill="white"/>
</svg>
