<svg width="26" height="26" viewBox="0 0 26 26" fill="none" xmlns="http://www.w3.org/2000/svg">
<path d="M8.27043 5.37205L6.55143 1.40237H7.88916L8.53134 5.37205H8.27043ZM10.7405 5.37205L11.7027 0.0253906H8.42688L9.29179 5.37205H10.7405ZM11.8657 5.37205L13.586 1.40237H12.2178L11.5034 5.37205H11.8657ZM22.1544 18.616C21.4459 17.9725 20.4484 17.2675 19.3457 16.6307C18.2437 15.994 17.1345 15.4824 16.2227 15.1904C15.1827 14.8575 14.8206 14.9375 14.7341 14.97C14.7491 15.061 14.8605 15.4142 15.6689 16.1484C16.377 16.7914 17.3747 17.4966 18.4781 18.1341C19.58 18.7704 20.6889 19.2817 21.6006 19.5737C22.6408 19.9069 23.0031 19.8272 23.0896 19.7948C23.0745 19.704 22.963 19.3505 22.1544 18.616ZM24.2589 20.4687C24.0389 20.8495 23.2559 20.9582 22.1648 20.7585C20.9141 20.5295 19.411 19.9331 17.9323 19.0794C14.8724 17.3126 13.1029 15.0966 13.5651 14.2956C13.7122 14.0406 14.1114 13.9078 14.6867 13.9078C14.9709 13.9078 15.2981 13.9402 15.6589 14.0062C16.9095 14.2353 18.4127 14.8316 19.8914 15.6854C22.169 16.9998 23.9762 18.7273 24.286 19.8863C24.351 20.1294 24.3419 20.3253 24.2589 20.4687ZM22.8003 18.1911C22.0447 17.4759 20.9512 16.6908 19.7212 15.9806C18.4921 15.2704 17.2659 14.7157 16.2683 14.4187C15.0653 14.0606 14.3477 14.1163 14.0743 14.5891C13.8015 15.0623 14.1121 15.7116 15.024 16.5743C15.779 17.2886 16.8723 18.0735 18.1025 18.7842C19.7295 19.7236 21.7199 20.5764 22.8536 20.5763C23.0031 20.5763 23.1378 20.5615 23.2547 20.5301C23.5389 20.4538 23.6807 20.295 23.7492 20.1759C24.0224 19.7033 23.712 19.054 22.8003 18.1911ZM10.1823 21.318C9.11482 21.5496 8.84222 21.8001 8.78408 21.8711C8.84222 21.9421 9.11482 22.1926 10.1823 22.4243C11.1172 22.6272 12.3337 22.7389 13.6077 22.7389C15.4328 22.7389 16.8894 22.5171 17.7256 22.2397C17.3055 22.039 16.8891 21.8199 16.4854 21.5868C16.2186 21.4328 15.9587 21.2735 15.7058 21.1106C15.0452 21.0396 14.3401 21.0033 13.6076 21.0033C12.3337 21.0033 11.1172 21.1151 10.1823 21.318ZM6.74876 7.82808H13.3873C13.8582 7.82808 14.2414 7.4456 14.2414 6.97547C14.2414 6.50533 13.8583 6.1229 13.3873 6.1229H11.0544H8.97227H6.74876C6.27863 6.1229 5.89615 6.50533 5.89615 6.97547C5.89615 7.4456 6.27863 7.82808 6.74876 7.82808ZM7.43289 23.1516C7.43299 23.44 7.4333 23.7284 7.43269 24.0164C7.43269 24.3092 7.69817 24.613 8.17287 24.8915V24.47H8.92362V25.244C9.29209 25.3851 9.71998 25.513 10.1972 25.6207V25.046H10.948V25.7664C11.3478 25.8321 11.7732 25.8843 12.22 25.92V25.2983H12.9708V25.9633C13.1795 25.9707 13.3919 25.9747 13.6076 25.9747C13.8234 25.9747 14.0357 25.9708 14.2444 25.9633V25.2983H14.9951V25.92C15.442 25.8843 15.8675 25.8321 16.2673 25.7663V25.0461H17.018V25.6206C17.4953 25.5127 17.9232 25.3848 18.2916 25.2436V24.4701H19.0423V24.8905C19.5161 24.6121 19.781 24.3084 19.781 24.0157V23.1485C18.6395 24.0259 16.281 24.581 13.6075 24.581C11.1866 24.581 8.65621 24.087 7.43289 23.1516ZM22.0296 21.497C20.6965 21.2529 19.1082 20.6252 17.5569 19.7295C15.4608 18.5193 13.5168 16.8265 12.9251 15.4048C12.7813 15.6542 12.6374 15.9037 12.4935 16.1529C12.35 16.4011 12.4277 16.7989 12.6973 17.2794L12.9073 16.9158L13.5575 17.2912L13.1688 17.9643C13.2078 18.0128 13.248 18.0616 13.2899 18.1108C13.5204 18.3818 13.7868 18.6555 14.0819 18.9279L14.3706 18.4268L15.0212 18.8016L14.6596 19.4292C14.9783 19.6895 15.3219 19.9462 15.6856 20.1958L15.9969 19.6561L16.6473 20.0313L16.3144 20.6083C16.4929 20.7198 16.6752 20.8294 16.8609 20.9366C17.0475 21.0443 17.2331 21.1469 17.4173 21.2447L17.7511 20.6679L18.4009 21.044L18.0892 21.5826C18.4941 21.7752 18.8888 21.943 19.2679 22.086L19.628 21.4629L20.278 21.8386L19.991 22.3352C20.4581 22.4805 20.8922 22.5835 21.2819 22.6455L21.6691 21.9752L22.3192 22.3507L22.1083 22.7157C22.6589 22.7119 23.0408 22.5815 23.1873 22.3278C23.3311 22.0782 23.4751 21.8285 23.6191 21.5788C23.4692 21.5984 23.309 21.6085 23.1382 21.6085C22.8067 21.6085 22.4365 21.5715 22.0296 21.497ZM13.2445 19.1651C13.0547 18.9757 12.8785 18.7861 12.718 18.5974C11.7422 17.4504 11.4398 16.4753 11.8434 15.7773C12.0218 15.4683 12.2004 15.1587 12.3789 14.849C12.5574 14.5395 12.7359 14.23 12.9145 13.9208C13.3171 13.2228 14.3131 12.9966 15.7941 13.2678C16.4432 13.3866 17.153 13.5971 17.8895 13.8845C17.1039 11.7456 15.5676 9.75797 13.734 8.5408C13.6223 8.56548 13.5063 8.57893 13.3873 8.57893H6.74876C6.63044 8.57893 6.51517 8.56568 6.40406 8.5412C3.61048 10.3919 1.6711 13.8294 1.6711 16.9621C1.6711 20.4734 3.86038 23.5634 6.96083 24.8253C6.78101 24.5782 6.68189 24.3082 6.68189 24.0156C6.6829 23.5388 6.68255 23.0622 6.68224 22.5859L6.68189 21.8711C6.68194 20.1744 9.998 19.2309 13.2445 19.1651ZM13.6077 19.9121C10.0735 19.9121 7.43269 20.9464 7.43269 21.8711C7.43269 22.7959 10.0735 23.8301 13.6077 23.8301C15.8087 23.8301 17.873 23.4135 18.9829 22.7792C18.872 22.7371 18.7607 22.6934 18.6492 22.6481C17.7922 23.1636 15.8672 23.4897 13.6077 23.4897C12.187 23.4897 10.8476 23.3568 9.83616 23.1155C8.61569 22.8242 8.02241 22.4172 8.02241 21.8711C8.02241 21.325 8.61569 20.918 9.83616 20.6268C10.8476 20.3855 12.187 20.2525 13.6077 20.2525C13.9145 20.2525 14.2168 20.2588 14.5136 20.271C14.3624 20.1543 14.2154 20.0368 14.0735 19.9183C13.9279 19.9142 13.7745 19.9121 13.6077 19.9121ZM20.5957 14.2676H21.3465V13.4484H22.1642V12.6976H21.3465V11.8784H20.5957V12.6976H19.7765V13.4484H20.5957V14.2676ZM18.9043 10.0673L19.5428 9.67271C18.5955 8.13983 17.2492 7.4525 16.186 7.14477C17.2449 6.83221 18.5751 6.14321 19.515 4.62485L18.877 4.22972C18.2373 5.26292 17.3119 5.9835 16.127 6.37218C15.6638 6.52392 15.2482 6.59308 14.9528 6.62416C14.9786 6.7373 14.992 6.85471 14.992 6.97536C14.992 7.21987 14.9368 7.45149 14.8381 7.65898C15.6139 7.71951 17.6701 8.07178 18.9043 10.0673Z" fill="white"/>
<path d="M21.3465 14.2676H20.5957V13.4484H19.7765V12.6976H20.5957V11.8784H21.3465V12.6976H22.1642V13.4484H21.3465V14.2676Z" fill="white"/>
<path d="M1.68226 9.67271H0.931509V8.85356H0.112305V8.10276H0.931509V7.28361H1.68226V8.10276H2.49994V8.85356H1.68226V9.67271Z" fill="white"/>
</svg>
