<svg width="25" height="24" viewBox="0 0 25 24" fill="none" xmlns="http://www.w3.org/2000/svg">
<g clip-path="url(#clip0_159_912)">
<path fill-rule="evenodd" clip-rule="evenodd" d="M3.66252 3.48673C1.86076 5.22207 0.604501 7.48517 0.17001 10.0144C0.864237 9.3025 1.92216 8.67247 3.25636 8.15846C4.43704 7.70354 5.83738 7.33509 7.39114 7.08034C7.65563 5.58378 8.03816 4.23499 8.51047 3.09778C9.04413 1.81275 9.69824 0.793778 10.4373 0.12511C7.81145 0.543558 5.46189 1.75131 3.66252 3.48673ZM17.6089 7.0803C19.1627 7.33504 20.563 7.70349 21.7436 8.15841C23.0778 8.67242 24.1357 9.30245 24.83 10.0143C24.3932 7.48517 23.1392 5.22207 21.3375 3.48669C19.5358 1.75131 17.1885 0.543558 14.5627 0.125063C15.3018 0.793731 15.9559 1.81266 16.4896 3.09774C16.9618 4.23499 17.3444 5.58373 17.6089 7.0803ZM17.7293 16.169C19.1319 15.9233 20.3953 15.5844 21.465 15.1728C23.6493 14.3313 25 13.2077 25 12C25 10.7945 23.6493 9.66869 21.465 8.82713C20.3953 8.41546 19.1319 8.07661 17.7293 7.83322C17.9205 9.13875 18.0244 10.5421 18.0244 12C18.0245 13.4602 17.9205 14.8635 17.7293 16.169ZM17.6089 16.9219C17.3444 18.4184 16.9618 19.7672 16.4896 20.9044C15.9559 22.1872 15.3018 23.2084 14.5627 23.8772C17.1886 23.4564 19.5358 22.2486 21.3375 20.5132C23.1392 18.7778 24.3932 16.5147 24.83 13.9856C24.1357 14.6998 23.0778 15.3297 21.7436 15.8438C20.5629 16.2987 19.1627 16.6649 17.6089 16.9219ZM12.1233 24V17.3199C10.7443 17.3063 9.41717 17.2084 8.17275 17.0378C8.42544 18.3888 8.77725 19.6034 9.2047 20.636C9.99105 22.5261 11.0135 23.7702 12.1233 24ZM16.8273 17.0379C15.5828 17.2085 14.2557 17.3063 12.8743 17.3199V24C13.9841 23.7703 15.009 22.5262 15.793 20.6361C16.2227 19.6034 16.5722 18.3889 16.8273 17.0379ZM16.9547 7.71037C15.6796 7.52617 14.3076 7.41925 12.8743 7.40332V16.5966C14.3076 16.5807 15.6796 16.4738 16.9547 16.2918C17.1602 14.9568 17.2735 13.5125 17.2735 12C17.2735 10.4897 17.1602 9.04318 16.9547 7.71037ZM12.8743 0V6.68004C14.2557 6.69596 15.5828 6.79374 16.8273 6.96206C16.5722 5.61333 16.2227 4.39648 15.793 3.36619C15.009 1.4738 13.9841 0.231984 12.8743 0ZM8.17275 6.96202C9.41722 6.7937 10.7443 6.69592 12.1233 6.67999V0C11.0135 0.231984 9.991 1.4738 9.20465 3.36619C8.77725 4.39648 8.42544 5.61332 8.17275 6.96202ZM7.72647 12C7.72647 13.5125 7.83748 14.9568 8.04525 16.2918C9.31805 16.4738 10.6924 16.5807 12.1233 16.5966V7.40332C10.6924 7.41925 9.318 7.52612 8.04525 7.71037C7.83743 9.04318 7.72647 10.4897 7.72647 12ZM7.39114 16.9219C5.83733 16.6649 4.43704 16.2987 3.25636 15.8438C1.92216 15.3297 0.864286 14.6998 0.17001 13.9856C0.604501 16.5147 1.86076 18.7778 3.66252 20.5132C5.46189 22.2486 7.8115 23.4564 10.4373 23.8772C9.69824 23.2084 9.04413 22.1872 8.51047 20.9044C8.03816 19.7672 7.65563 18.4184 7.39114 16.9219ZM7.26835 7.83317C5.86805 8.07656 4.6047 8.41546 3.53498 8.82708C1.35068 9.66864 0 10.7945 0 12C0 13.2077 1.35068 14.3313 3.53498 15.1728C4.6047 15.5845 5.86805 15.9233 7.26835 16.169C7.07705 14.8635 6.97319 13.4601 6.97319 11.9999C6.97319 10.5421 7.07705 9.1387 7.26835 7.83317Z" fill="white"/>
</g>
<defs>
<clipPath id="clip0_159_912">
<rect width="25" height="24" fill="white"/>
</clipPath>
</defs>
</svg>
