<svg width="26" height="26" viewBox="0 0 26 26" fill="none" xmlns="http://www.w3.org/2000/svg">
<path d="M5.43816 17.5307C6.19054 17.6598 6.98765 17.7543 7.81422 17.8118V16.6269H8.5543V17.8529C8.94557 17.8693 9.34202 17.8778 9.74233 17.8778C10.1431 17.8778 10.5401 17.8693 10.9319 17.8528V16.6269H11.672V17.8117C12.4985 17.7542 13.2957 17.6597 14.048 17.5306V16.2389H14.7881V17.3895C15.4961 17.2402 16.1558 17.0584 16.7517 16.8459C16.895 16.7949 17.0327 16.7424 17.1657 16.6889V15.3505H17.9058V16.3517C18.907 15.8319 19.4608 15.2368 19.4608 14.6524V12.8608C18.9189 13.3829 18.0886 13.8518 17.0002 14.2398C15.0557 14.9329 12.4781 15.3146 9.74243 15.3146C7.00736 15.3146 4.43031 14.9329 2.48595 14.2398C1.3975 13.8518 0.567328 13.3829 0.0253906 12.8608V14.6524C0.0253906 15.2368 0.579262 15.832 1.58046 16.3518V15.3505H2.32055V16.689C2.45345 16.7425 2.59111 16.795 2.73432 16.846C3.33039 17.0585 3.99009 17.2403 4.69808 17.3896V16.2389H5.43816V17.5307Z" fill="white"/>
<path d="M9.7425 18.6181C8.97926 18.6181 8.22836 18.5884 7.5 18.5304C7.59816 18.7168 8.07093 19.1031 9.54557 19.4548C11.0341 19.8099 13.0189 20.0054 15.1343 20.0054C17.2503 20.0054 19.2352 19.8099 20.7235 19.4548C22.4186 19.0505 22.7898 18.6002 22.7898 18.4608C22.7898 18.1608 21.6178 17.3963 18.1482 17.0566C17.8053 17.2299 17.4226 17.3928 17.0003 17.5433C15.0557 18.2364 12.4782 18.6181 9.7425 18.6181Z" fill="white"/>
<path d="M6.97246 9.24056V8.23895H7.71255V9.57764C7.84509 9.63096 7.9823 9.68327 8.12504 9.7342C8.72101 9.94667 9.38066 10.1285 10.0887 10.2779V9.12732H10.8287V10.419C11.5815 10.5481 12.3791 10.6427 13.2063 10.7002V9.51539H13.9464V10.7414C14.3376 10.7579 14.7341 10.7663 15.1344 10.7663C15.5347 10.7663 15.9311 10.7579 16.3224 10.7414V9.51539H17.0625V10.7002C17.8896 10.6427 18.6873 10.5482 19.4401 10.419V9.12732H20.1802V10.2779C20.8881 10.1285 21.5477 9.94672 22.1437 9.7342C22.2865 9.68332 22.4237 9.63102 22.5562 9.57764V8.23895H23.2963V9.24056C24.2985 8.72036 24.8528 8.12449 24.8528 7.53929C24.852 6.94266 24.8523 6.34572 24.8526 5.74874C24.3106 6.27092 23.4805 6.73989 22.3923 7.12791C20.4479 7.82117 17.8704 8.203 15.1344 8.203C12.3985 8.203 9.82093 7.82117 7.87657 7.12791C6.78818 6.73984 5.95795 6.27077 5.41602 5.74854V7.53934C5.41591 8.12449 5.97029 8.72036 6.97246 9.24056Z" fill="white"/>
<path d="M22.3922 21.3513C20.4477 22.0444 17.8702 22.4262 15.1344 22.4262C12.3987 22.4262 9.82119 22.0444 7.87662 21.3513C6.78823 20.9634 5.958 20.4944 5.41602 19.9724V21.764C5.41602 22.3487 5.97039 22.9441 6.97256 23.4641V22.4636H7.71265V23.8011C7.84514 23.8544 7.98235 23.9067 8.12509 23.9576C8.72106 24.17 9.38076 24.3518 10.0887 24.5011V23.3506H10.8288V24.6423C11.5816 24.7713 12.3792 24.8659 13.2063 24.9234V23.7386H13.9464V24.9646C14.3377 24.981 14.7341 24.9895 15.1344 24.9895C15.5347 24.9895 15.9312 24.981 16.3225 24.9646V23.7386H17.0625V24.9234C17.8897 24.8659 18.6873 24.7714 19.4401 24.6423V23.3506H20.1802V24.5011C20.8881 24.3518 21.5478 24.17 22.1438 23.9576C22.2866 23.9067 22.4238 23.8544 22.5563 23.8011V22.4636H23.2963V23.4641C24.2985 22.9442 24.8529 22.3487 24.8529 21.764C24.8521 21.1671 24.8524 20.5699 24.8526 19.9727C24.3106 20.4946 23.4805 20.9634 22.3922 21.3513Z" fill="white"/>
<path d="M19.8812 15.6641C19.7074 15.9306 19.4644 16.1868 19.1553 16.4295C20.9711 16.6776 23.5299 17.2433 23.5299 18.4607C23.5299 19.1809 22.6436 19.7575 20.8954 20.1746C19.3525 20.5426 17.3065 20.7453 15.1344 20.7453C12.9629 20.7453 10.9171 20.5426 9.37401 20.1746C7.62546 19.7575 6.73887 19.1809 6.73887 18.4607C6.73887 18.46 6.73897 18.4593 6.73897 18.4586C6.2928 18.4099 5.85715 18.3501 5.4342 18.2801C5.42226 18.3404 5.41602 18.4005 5.41602 18.4607C5.41602 19.241 6.40346 20.0406 8.12509 20.6543C9.99191 21.3197 12.4812 21.6862 15.1344 21.6862C17.7876 21.6862 20.2769 21.3197 22.1437 20.6543C23.8654 20.0406 24.8528 19.2411 24.8528 18.4607C24.8528 17.3557 22.8661 16.2443 19.8812 15.6641Z" fill="white"/>
<path d="M2.73432 13.5428C4.60093 14.2082 7.08977 14.5746 9.74233 14.5746C12.3955 14.5746 14.8848 14.2082 16.7517 13.5428C18.4733 12.9291 19.4607 12.1296 19.4607 11.3492C19.4607 11.2886 19.4547 11.2286 19.443 11.1686C19.0199 11.2387 18.5841 11.2984 18.1378 11.3471C18.1378 11.3478 18.1379 11.3485 18.1379 11.3492C18.1379 12.0694 17.2515 12.6461 15.5033 13.0631C13.9604 13.4311 11.9144 13.6339 9.74233 13.6339C7.57077 13.6339 5.525 13.4311 3.98191 13.0631C2.23336 12.646 1.34677 12.0694 1.34677 11.3492C1.34677 10.1318 3.90599 9.56613 5.72234 9.31807C5.41313 9.07538 5.17004 8.81909 4.99616 8.55249C2.0118 9.13246 0.0253906 10.244 0.0253906 11.3492C0.0253906 12.1295 1.01278 12.9291 2.73432 13.5428Z" fill="white"/>
<path d="M8.12509 6.43084C9.99171 7.09638 12.481 7.46286 15.1344 7.46286C17.7877 7.46286 20.277 7.09638 22.1437 6.43084C23.8654 5.81694 24.8528 5.01694 24.8528 4.23592C24.8528 3.45556 23.8654 2.65601 22.1437 2.04237C20.2769 1.37694 17.7876 1.0105 15.1344 1.0105C12.4813 1.0105 9.99196 1.37694 8.12509 2.04237C6.40341 2.65606 5.41602 3.45556 5.41602 4.23592C5.41602 5.01688 6.40341 5.81694 8.12509 6.43084ZM9.37401 2.522C10.9171 2.15394 12.9629 1.95122 15.1344 1.95122C17.3065 1.95122 19.3525 2.15394 20.8954 2.522C22.6436 2.93902 23.5299 3.51569 23.5299 4.23587C23.5299 4.9561 22.6436 5.53297 20.8955 5.9505C19.3522 6.31907 17.3062 6.52204 15.1344 6.52204C12.9632 6.52204 10.9174 6.31907 9.37386 5.9505C7.62536 5.53303 6.73882 4.95615 6.73882 4.23587C6.73887 3.51569 7.62546 2.93912 9.37401 2.522Z" fill="white"/>
<path d="M7.87633 10.4312C7.45439 10.2807 7.07191 10.118 6.72929 9.94482C3.25905 10.2844 2.08691 11.0489 2.08691 11.349C2.08691 11.4883 2.45823 11.9385 4.15371 12.343C5.64221 12.698 7.627 12.8935 9.74244 12.8935C11.8584 12.8935 13.8434 12.698 15.3317 12.343C16.8059 11.9913 17.2785 11.605 17.3767 11.4186C16.6484 11.4765 15.8975 11.5063 15.1343 11.5063C12.3983 11.5063 9.8207 11.1245 7.87633 10.4312Z" fill="white"/>
<path d="M9.54536 5.23072C11.0342 5.58624 13.019 5.782 15.134 5.782C17.2495 5.782 19.2345 5.58624 20.7232 5.23072C22.4183 4.82595 22.7895 4.37541 22.7895 4.23597C22.7895 4.09662 22.4183 3.6463 20.7232 3.24198C19.2349 2.88691 17.2499 2.69141 15.134 2.69141C13.0185 2.69141 11.0338 2.88691 9.54526 3.24198C7.84978 3.6464 7.47852 4.09662 7.47852 4.23597C7.47846 4.37536 7.84978 4.82584 9.54536 5.23072Z" fill="white"/>
<path d="M25.2011 12.6884V11.9138H24.461V12.6884H23.6865V13.4285H24.461V14.2015H25.2011V13.4285H25.9742V12.6884H25.2011Z" fill="white"/>
<path d="M2.00288 19.77H1.26285V20.543H0.488281V21.2831H1.26285V22.0561H2.00288V21.2831H2.77593V20.543H2.00288V19.77Z" fill="white"/>
<path d="M1.26285 5.8853H2.00288V5.11078H2.77593V4.3707H2.00288V3.59766H1.26285V4.3707H0.488281V5.11078H1.26285V5.8853Z" fill="white"/>
</svg>
