<svg width="40" height="32" viewBox="0 0 40 32" fill="none" xmlns="http://www.w3.org/2000/svg">
<mask id="mask0_158_109" style="mask-type:luminance" maskUnits="userSpaceOnUse" x="12" y="0" width="24" height="23">
<path d="M12.4268 0H35.1468V22.72H12.4268V0Z" fill="white"/>
</mask>
<g mask="url(#mask0_158_109)">
<path d="M24.0635 6.07854C24.0807 6.23688 24.1047 6.39438 24.1353 6.55083C24.1659 6.70729 24.203 6.86207 24.2468 7.01541C24.2904 7.16874 24.3407 7.32 24.3971 7.46895C24.4538 7.61791 24.5165 7.76438 24.5853 7.90812C24.6542 8.05188 24.7292 8.1925 24.8098 8.32979C24.8907 8.46729 24.9771 8.60104 25.0695 8.73104C25.1615 8.86124 25.2591 8.98707 25.3618 9.10895C25.4645 9.23083 25.5724 9.34812 25.6851 9.46083C25.7979 9.57354 25.9151 9.68124 26.037 9.78416C26.1586 9.88688 26.2847 9.98438 26.4147 10.0765C26.5448 10.1685 26.6786 10.2552 26.8159 10.3358C26.9535 10.4167 27.0941 10.4917 27.2379 10.5606C27.3815 10.6294 27.5279 10.6921 27.677 10.7487C27.8259 10.8052 27.9771 10.8554 28.1304 10.8992C28.2836 10.9429 28.4386 10.98 28.5951 11.0106C28.7515 11.0412 28.9088 11.0652 29.0674 11.0825C30.6035 11.2508 32.5862 11.3595 35.1459 11.3595C32.5862 11.3595 30.6035 11.4683 29.0674 11.6367C28.9088 11.6539 28.7515 11.6779 28.5951 11.7085C28.4386 11.7391 28.2836 11.7765 28.1304 11.8201C27.9771 11.8638 27.8259 11.9139 27.677 11.9705C27.5279 12.0271 27.3815 12.0898 27.2379 12.1588C27.0941 12.2274 26.9535 12.3024 26.8159 12.3833C26.6786 12.4641 26.5448 12.5506 26.4147 12.6427C26.2847 12.7348 26.1586 12.8323 26.037 12.935C25.9151 13.0379 25.7979 13.1456 25.6851 13.2583C25.5724 13.3711 25.4645 13.4883 25.3618 13.6101C25.2591 13.7321 25.1615 13.8579 25.0695 13.9882C24.9771 14.1182 24.8907 14.2518 24.8098 14.3894C24.7291 14.5267 24.6542 14.6673 24.5853 14.8111C24.5165 14.9548 24.4536 15.1012 24.3971 15.2501C24.3407 15.3991 24.2904 15.5505 24.2468 15.7038C24.203 15.8571 24.1659 16.0118 24.1353 16.1683C24.1047 16.3248 24.0807 16.4823 24.0635 16.6406C23.8951 18.1767 23.7863 20.1594 23.7863 22.7191C23.7863 20.1595 23.6774 18.1767 23.5092 16.6406C23.492 16.4823 23.468 16.3248 23.4374 16.1683C23.4068 16.0118 23.3695 15.8571 23.3257 15.7038C23.282 15.5505 23.232 15.3991 23.1753 15.2501C23.1188 15.1012 23.0562 14.9548 22.9871 14.8111C22.9182 14.6673 22.8435 14.5267 22.7626 14.3894C22.6818 14.2518 22.5953 14.1182 22.5032 13.9882C22.4112 13.8579 22.3136 13.7321 22.2109 13.6101C22.108 13.4883 22.0003 13.3711 21.8876 13.2583C21.7748 13.1456 21.6576 13.0379 21.5357 12.935C21.4138 12.8323 21.2879 12.7348 21.1579 12.6427C21.0279 12.5506 20.8941 12.4641 20.7565 12.3833C20.6192 12.3024 20.4786 12.2274 20.3348 12.1588C20.1912 12.0898 20.0447 12.0271 19.8957 11.9705C19.7465 11.9139 19.5954 11.8639 19.4421 11.8201C19.2888 11.7765 19.1341 11.7391 18.9776 11.7085C18.8212 11.6779 18.6636 11.6539 18.5051 11.6367C16.9691 11.4683 14.9863 11.3595 12.4268 11.3595C14.9863 11.3595 16.9691 11.2508 18.5051 11.0825C18.6636 11.0652 18.8212 11.0412 18.9776 11.0106C19.1341 10.98 19.2888 10.9429 19.4421 10.8992C19.5954 10.8554 19.7465 10.8052 19.8957 10.7487C20.0447 10.6921 20.1912 10.6294 20.3348 10.5604C20.4786 10.4917 20.6192 10.4167 20.7565 10.3358C20.8941 10.2552 21.0279 10.1685 21.1579 10.0765C21.2879 9.98438 21.4138 9.88688 21.5357 9.78416C21.6576 9.68124 21.7748 9.57354 21.8876 9.46083C22.0003 9.34812 22.108 9.23083 22.2107 9.10895C22.3136 8.98707 22.4112 8.86124 22.5032 8.73104C22.5953 8.60104 22.6818 8.46729 22.7626 8.32979C22.8435 8.1925 22.9182 8.05188 22.9871 7.90812C23.0562 7.76438 23.1188 7.61791 23.1753 7.46895C23.232 7.31979 23.282 7.16874 23.3257 7.01541C23.3695 6.86207 23.4068 6.70729 23.4374 6.55083C23.468 6.39438 23.492 6.23688 23.5092 6.07854C23.6774 4.5425 23.7863 2.55979 23.7863 0C23.7863 2.55958 23.8951 4.5425 24.0635 6.07854Z" fill="white"/>
</g>
<mask id="mask1_158_109" style="mask-type:luminance" maskUnits="userSpaceOnUse" x="4" y="16" width="16" height="16">
<path d="M4 16H19.1599V31.1467H4V16Z" fill="white"/>
</mask>
<g mask="url(#mask1_158_109)">
<path d="M11.7579 20.0523C11.7694 20.1579 11.7854 20.2629 11.8058 20.3673C11.8262 20.4717 11.851 20.5748 11.88 20.6771C11.9092 20.7791 11.9427 20.88 11.9804 20.9794C12.0181 21.0788 12.0598 21.1762 12.1058 21.2721C12.1517 21.3679 12.2017 21.4617 12.2554 21.5533C12.3094 21.645 12.3671 21.7341 12.4285 21.8208C12.4898 21.9074 12.5548 21.9915 12.6233 22.0727C12.6919 22.1539 12.7637 22.2321 12.839 22.3073C12.914 22.3824 12.9923 22.4544 13.0735 22.5229C13.1548 22.5915 13.2387 22.6562 13.3254 22.7177C13.4121 22.7791 13.5012 22.8368 13.5929 22.8906C13.6846 22.9445 13.7781 22.9945 13.874 23.0405C13.9698 23.0865 14.0675 23.1282 14.1669 23.1658C14.2662 23.2035 14.3671 23.2371 14.4691 23.2662C14.5715 23.2955 14.6746 23.32 14.779 23.3405C14.8832 23.3608 14.9882 23.3768 15.0938 23.3885C16.1179 23.5006 17.4399 23.5732 19.1462 23.5732C17.4399 23.5732 16.1179 23.6456 15.0938 23.7579C14.9882 23.7694 14.8832 23.7855 14.779 23.8058C14.6746 23.8262 14.5715 23.8511 14.4691 23.8802C14.3671 23.9094 14.2662 23.9427 14.1669 23.9805C14.0675 24.0182 13.9698 24.06 13.874 24.1058C13.7781 24.1518 13.6846 24.2017 13.5929 24.2556C13.5012 24.3095 13.4121 24.3671 13.3254 24.4285C13.2387 24.49 13.1548 24.555 13.0735 24.6235C12.9923 24.6921 12.914 24.7639 12.839 24.8389C12.7637 24.9141 12.6919 24.9923 12.6233 25.0735C12.5548 25.1548 12.4898 25.2388 12.4285 25.3255C12.3671 25.4123 12.3094 25.5015 12.2554 25.5929C12.2017 25.6845 12.1517 25.7783 12.1058 25.8741C12.0598 25.97 12.0181 26.0674 11.9804 26.1668C11.9427 26.2662 11.9092 26.3671 11.88 26.4694C11.8508 26.5715 11.8262 26.6748 11.8058 26.7789C11.7854 26.8833 11.7694 26.9883 11.7579 27.0939C11.6456 28.1179 11.5731 29.4398 11.5731 31.1462C11.5731 29.4398 11.5004 28.1179 11.3883 27.0939C11.3769 26.9883 11.3608 26.8833 11.3404 26.7789C11.32 26.6748 11.2952 26.5715 11.266 26.4694C11.2369 26.3671 11.2035 26.2662 11.1658 26.1668C11.1281 26.0674 11.0862 25.97 11.0404 25.8741C10.9944 25.7783 10.9446 25.6845 10.8906 25.5929C10.8367 25.5015 10.7792 25.4123 10.7177 25.3255C10.6562 25.2388 10.5912 25.1548 10.5227 25.0735C10.4542 24.9923 10.3823 24.9141 10.3073 24.8389C10.2321 24.7639 10.154 24.6921 10.0727 24.6235C9.99145 24.555 9.9075 24.49 9.82062 24.4285C9.73396 24.3671 9.64479 24.3095 9.55312 24.2556C9.46167 24.2017 9.36791 24.1518 9.27208 24.1058C9.17624 24.06 9.07855 24.0182 8.97917 23.9805C8.87979 23.9427 8.77917 23.9094 8.67688 23.8802C8.57479 23.8511 8.47145 23.8262 8.36708 23.8058C8.26291 23.7855 8.15791 23.7694 8.05229 23.7579C7.02812 23.6456 5.70624 23.5732 4 23.5732C5.70624 23.5732 7.02812 23.5006 8.05229 23.3885C8.15791 23.3768 8.26291 23.3608 8.36708 23.3405C8.47145 23.32 8.57479 23.2952 8.67688 23.2662C8.77917 23.2371 8.87979 23.2035 8.97917 23.1658C9.07855 23.1282 9.17624 23.0865 9.27208 23.0405C9.36791 22.9945 9.46167 22.9445 9.55312 22.8906C9.64479 22.8368 9.73396 22.7791 9.82062 22.7177C9.9075 22.6562 9.99145 22.5915 10.0727 22.5229C10.154 22.4544 10.2321 22.3824 10.3073 22.3073C10.3823 22.2321 10.4542 22.1539 10.5227 22.0727C10.5912 21.9915 10.6562 21.9074 10.7177 21.8208C10.7792 21.7341 10.8367 21.645 10.8906 21.5533C10.9446 21.4617 10.9944 21.3679 11.0404 21.2721C11.0862 21.1762 11.1281 21.0788 11.1658 20.9794C11.2035 20.88 11.2369 20.7791 11.266 20.6771C11.2952 20.5748 11.32 20.4717 11.3404 20.3673C11.3608 20.2629 11.3769 20.1579 11.3883 20.0523C11.5004 19.0283 11.5731 17.7065 11.5731 16C11.5731 17.7065 11.6456 19.0283 11.7579 20.0523Z" fill="white"/>
</g>
</svg>
