<svg width="200" height="200" viewBox="0 0 200 200" fill="none" xmlns="http://www.w3.org/2000/svg">
<g clip-path="url(#clip0_195_2)">
<g clip-path="url(#clip1_195_2)">
<path d="M160.856 112.442C155.416 112.442 150.582 108.567 149.337 103.218H181.635C181.635 103.218 181.808 101.279 181.808 100.594C181.808 89.2395 172.412 80 160.862 80C149.312 80 139.915 89.2376 139.915 100.594C139.915 111.95 149.259 120.973 160.862 120.973C172.464 120.973 179.238 112.57 180.929 106.487H171.085C171.085 106.487 167.953 112.442 160.856 112.442ZM160.862 88.527C166.077 88.527 170.605 91.9133 172.156 96.9603H149.567C151.112 91.9133 155.642 88.527 160.862 88.527Z" fill="white"/>
<path d="M37.6096 120.973C26.0598 120.973 17 111.831 17 100.594C17 89.3564 26.3968 80 37.9466 80C49.4965 80 58.8933 89.6015 58.8933 100.484C58.8933 105.121 58.8933 119.952 58.8933 119.952H50.7608V113.455L50.1687 113.302C48.7366 116.753 43.5481 120.973 37.6076 120.973H37.6096ZM37.9466 88.527C31.4236 88.527 26.1143 93.9111 26.1143 100.53C26.1143 107.15 31.4216 112.444 37.9466 112.444C44.4716 112.444 49.779 107.1 49.779 100.53C49.779 93.9609 44.4716 88.527 37.9466 88.527Z" fill="white"/>
<path d="M82.0997 120.973C70.55 120.973 61.4902 111.831 61.4902 100.594C61.4902 89.3564 70.887 80 82.4367 80C93.9864 80 103.383 89.6015 103.383 100.484C103.383 105.121 103.383 119.952 103.383 119.952H95.251V113.455L94.6586 113.302C93.2266 116.753 88.0382 120.973 82.0976 120.973H82.0997ZM82.4367 88.527C75.9137 88.527 70.6045 93.9111 70.6045 100.53C70.6045 107.15 75.9116 112.444 82.4367 112.444C88.9618 112.444 94.2689 107.1 94.2689 100.53C94.2689 93.9609 88.9618 88.527 82.4367 88.527Z" fill="white"/>
<path d="M117.035 119.947L100.344 81.0241H109.476L121.709 109.697L133.945 81.0241H143.075L126.385 119.947H117.035Z" fill="white"/>
</g>
</g>
<defs>
<clipPath id="clip0_195_2">
<rect width="200" height="200" fill="white"/>
</clipPath>
<clipPath id="clip1_195_2">
<rect width="165" height="41" fill="white" transform="translate(17 80)"/>
</clipPath>
</defs>
</svg>
