<svg width="200" height="200" viewBox="0 0 200 200" fill="none" xmlns="http://www.w3.org/2000/svg">
<g clip-path="url(#clip0_197_36)">
<g clip-path="url(#clip1_197_36)">
<path d="M76.4387 141.698C86.1418 141.698 94.0081 133.866 94.0081 124.206C94.0081 114.546 86.1418 106.715 76.4387 106.715C66.7353 106.715 58.8691 114.546 58.8691 124.206C58.8691 133.866 66.7353 141.698 76.4387 141.698Z" fill="white"/>
<path d="M122.36 141.698C132.064 141.698 139.93 133.866 139.93 124.206C139.93 114.546 132.064 106.715 122.36 106.715C112.657 106.715 104.791 114.546 104.791 124.206C104.791 133.866 112.657 141.698 122.36 141.698Z" fill="white"/>
<path d="M99.3699 52C51.6647 52 12.9875 91.2385 13 139.627H35.0649C35.0649 103.364 63.6274 73.9626 99.3699 73.9626C135.113 73.9626 163.675 103.364 163.675 139.627H185.74C185.748 91.2385 147.071 52 99.3699 52Z" fill="white"/>
</g>
</g>
<defs>
<clipPath id="clip0_197_36">
<rect width="200" height="200" fill="white"/>
</clipPath>
<clipPath id="clip1_197_36">
<rect width="173" height="90" fill="white" transform="translate(13 52)"/>
</clipPath>
</defs>
</svg>
