<svg width="200" height="200" viewBox="0 0 200 200" fill="none" xmlns="http://www.w3.org/2000/svg">
<g clip-path="url(#clip0_260_4330)">
<path d="M106.557 147.249C143.548 146.189 158.979 139.694 164.055 134.404L164.538 138.837L164.77 138.606C164.921 139.11 164.976 140.248 164.745 141.298C164.099 145.814 150.658 157.522 98.5922 157.522C96.6913 157.522 94.8801 157.501 93.1565 157.458C97.0354 154.003 100.344 150.608 103.18 147.32C104.293 147.306 105.419 147.282 106.557 147.249Z" fill="#007FFF"/>
<path d="M161.635 134.223C161.838 139.359 150.291 149.785 102.468 150.394C80.532 150.673 63.4613 147.637 50.7928 143.531C48.3089 142.687 42.8879 140.218 41.0753 137.094C40.0723 135.365 40.0604 130.928 40.4089 126.361C40.5072 126.679 40.6218 126.955 40.7541 127.183C42.5631 130.308 48.0173 132.769 50.5183 133.609C63.2751 137.694 80.4808 140.698 102.617 140.371C140.731 139.808 156.052 133.161 160.724 127.858L161.635 134.223Z" fill="#F5F3E6"/>
<path d="M107.681 142.387C85.7445 142.667 68.6739 139.631 56.0054 135.524C53.5215 134.681 48.1005 132.212 46.288 129.088C45.285 127.359 45.2731 122.922 45.6216 118.355C45.7199 118.673 45.8344 118.949 45.9667 119.177C47.7757 122.302 53.23 124.763 55.731 125.602C68.4878 129.688 85.6934 132.691 107.829 132.365C132.443 132.001 147.551 129.101 156.424 125.663C156.419 125.742 156.414 125.822 156.409 125.901C156.04 131.58 155.683 137.091 141.133 139.679C132.713 141.176 121.771 142.208 107.681 142.387Z" fill="#FDC541"/>
<path d="M107.681 134.382C85.7445 134.661 68.6739 131.625 56.0054 127.519C53.5215 126.675 48.1005 124.206 46.288 121.082C45.285 119.353 45.2731 114.917 45.6216 110.35C45.7199 110.667 45.8344 110.943 45.9667 111.172C47.7757 114.296 53.23 116.757 55.731 117.597C68.4878 121.682 85.6934 124.686 107.829 124.359C132.443 123.996 147.551 121.095 156.424 117.658C156.419 117.737 156.414 117.816 156.409 117.895C156.04 123.574 155.683 129.086 141.133 131.673C132.713 133.171 121.771 134.203 107.681 134.382Z" fill="#FF1100"/>
<path d="M104.155 40.4678C112.978 43.6242 126.041 61.0747 107.7 105.625C99.2872 126.06 87.2047 139.844 75.0839 148.867C72.6417 150.611 66.2445 154.008 60.194 153.647C57.8256 153.506 53.3519 152.025 48.2358 150.003C49.4221 150.316 50.4319 150.51 51.2128 150.557C57.2633 150.922 63.6605 147.488 66.1027 145.726C78.2237 136.608 90.3062 122.679 98.7187 102.028C113.861 64.8582 107.598 46.356 99.9869 39.2383L104.155 40.4678Z" fill="#FF1100"/>
<path d="M111.704 40.9739C120.528 44.2213 133.59 62.1744 115.249 108.008C106.836 129.031 94.754 143.213 82.633 152.495C80.191 154.289 73.7938 157.785 67.7433 157.414C65.3748 157.268 60.9009 155.744 55.7847 153.665C56.9711 153.986 57.981 154.186 58.7621 154.234C64.8125 154.61 71.2097 151.077 73.6519 149.264C85.7731 139.884 97.8551 125.552 106.268 104.308C121.41 66.067 115.147 47.0318 107.537 39.709L111.704 40.9739Z" fill="#FDC541"/>
<path d="M118.339 45.2122C127.162 48.4596 140.224 66.4126 121.884 112.246C113.471 133.27 101.389 147.451 89.268 156.734C86.8256 158.528 80.4284 162.023 74.3781 161.652C72.0096 161.507 67.5357 159.983 62.4194 157.903C63.6059 158.224 64.6158 158.424 65.3969 158.473C71.4474 158.848 77.8445 155.316 80.2867 153.502C92.4077 144.122 104.49 129.791 112.903 108.546C128.045 70.3053 121.782 51.2701 114.171 43.9473L118.339 45.2122Z" fill="#F5F3E6"/>
<path d="M127.931 114.305C146.271 66.7737 133.209 48.1558 124.385 44.7882L120.218 43.4766C120.298 43.5562 120.377 43.6372 120.457 43.7196C114.057 42.6718 105.289 47.0174 97.018 55.3371C95.836 56.5144 101.016 54.5755 102.69 52.907C106.708 49.6105 112.719 47.9605 118.369 50.3303C131.116 55.6775 131.38 83.839 118.959 113.23C106.538 142.622 87.5523 161.643 74.8049 156.296C73.1008 155.581 71.3186 154.244 69.8379 153.215C66.4168 150.16 64.8746 146.081 64.8746 135.555V148.542C63.9772 147.207 63.22 145.711 62.6302 144.032C62.511 141.206 60.6203 136.497 60.038 141.442C60.4775 152.23 65.1564 158.501 71.4724 162.245L71.4434 162.242C71.2066 162.227 71.0242 162.222 70.8664 162.218C70.2632 162.2 70.019 162.193 68.468 161.679C73.4207 163.851 76.1319 164.862 79.1039 164.976C86.0639 165.243 94.1513 161.185 96.5934 159.325C108.714 149.699 119.518 136.107 127.931 114.305Z" fill="#007FFF"/>
<path d="M102.734 90.2209C124.67 89.9419 141.741 92.9775 154.409 97.0839C156.893 97.9279 162.314 100.396 164.127 103.52C165.13 105.249 165.142 109.686 164.793 114.253C164.695 113.936 164.58 113.66 164.448 113.431C162.639 110.306 157.185 107.846 154.684 107.006C141.927 102.92 124.722 99.9168 102.585 100.243C77.972 100.607 62.8638 103.507 53.9905 106.945C53.9957 106.866 54.0009 106.787 54.006 106.707C54.3745 101.029 54.732 95.5171 69.282 92.9294C77.7017 91.432 88.6433 90.4003 102.734 90.2209Z" fill="#FF1100"/>
<path d="M102.734 99.2503C124.67 98.9708 141.741 102.006 154.409 106.113C156.893 106.957 162.314 109.425 164.127 112.549C165.13 114.278 165.142 118.716 164.793 123.282C164.695 122.965 164.58 122.689 164.448 122.46C162.639 119.335 157.185 116.875 154.684 116.035C141.927 111.949 124.722 108.946 102.585 109.273C77.972 109.636 62.8638 112.537 53.9905 115.975C53.9957 115.895 54.0009 115.816 54.006 115.737C54.3745 110.058 54.732 104.546 69.282 101.959C77.7017 100.461 88.6433 99.4296 102.734 99.2503Z" fill="#FDC541"/>
<path d="M43.567 123.899C43.363 118.763 54.9108 108.338 102.734 107.729C124.67 107.449 141.741 110.485 154.409 114.592C156.893 115.435 162.314 117.904 164.126 121.028C165.129 122.757 165.141 127.194 164.793 131.761C164.694 131.443 164.58 131.167 164.447 130.939C162.638 127.814 157.185 125.353 154.684 124.513C141.926 120.428 124.721 117.424 102.585 117.751C64.4712 118.314 49.1494 124.96 44.4771 130.264L43.567 123.899Z" fill="#F5F3E6"/>
<path d="M43.567 133.316C43.363 128.179 54.9108 117.754 102.734 117.145C124.67 116.865 141.741 119.901 154.409 124.008C156.893 124.851 162.314 127.32 164.126 130.444C165.03 132.002 165.129 135.757 164.885 139.826C162.947 136.806 157.134 134.752 154.684 133.929C141.928 129.844 124.722 126.84 102.586 127.167C64.4696 127.73 49.1483 134.377 44.4773 139.681L43.567 133.316Z" fill="#007FFF"/>
<path d="M47.8115 152.381C38.9879 149.109 25.9257 131.015 44.2663 84.8211C52.6789 63.6327 64.7612 49.34 76.8822 39.9848C79.3244 38.1765 85.7215 34.6535 91.7721 35.0276C95.1929 35.239 103.005 38.3495 110.801 41.8583C109.999 41.9416 109.225 42.0268 108.486 42.1082C105.805 42.4035 103.587 42.6479 102.172 42.562C96.121 42.1947 89.7239 45.6539 87.2814 47.4294C75.1605 56.6154 63.0782 70.6495 54.6656 91.4545C39.4294 129.135 45.865 147.774 53.5388 154.846L47.8115 152.381Z" fill="#FF1100"/>
<path d="M55.3603 156.011C46.5367 152.703 33.4745 134.412 51.8151 87.7175C60.2277 66.2991 72.3101 51.8512 84.4312 42.3944C86.8732 40.5665 93.2704 37.0053 99.3209 37.3833C101.962 37.5484 107.222 39.4606 113.07 41.9563C110.886 41.2239 109.069 40.7581 107.83 40.6801C101.779 40.2992 95.3819 43.886 92.9394 45.7269C80.8184 55.2515 68.7362 69.8029 60.3236 91.3746C41.983 138.404 55.4692 156.23 64.2928 159.562L71.8559 162.152L55.3603 156.011Z" fill="#FDC541"/>
<path d="M62.4691 159.169C53.6455 155.825 40.5833 137.338 58.9239 90.1411C67.3365 68.4928 79.4188 53.8897 91.5398 44.3313C93.9819 42.4837 100.379 38.8843 106.43 39.2665C109.163 39.4391 114.702 41.5036 120.795 44.1557C118.735 43.4981 117.02 43.0823 115.835 43.0058C109.785 42.6155 103.436 45.8492 100.994 47.736C88.8729 57.4976 76.7903 72.4111 68.3778 94.5196C52.7175 135.675 63.5707 155.853 71.4016 162.622L62.4691 159.169Z" fill="#F5F3E6"/>
<path d="M66.4727 92.75C48.1321 140.281 61.1943 158.899 70.0179 162.267L74.1851 163.578C74.1053 163.498 74.0256 163.417 73.9461 163.335C80.3461 164.383 89.1143 160.037 97.3854 151.718C98.567 150.54 93.3879 152.479 91.7127 154.148C87.6952 157.444 81.6841 159.094 76.0345 156.724C63.287 151.377 63.0227 123.216 75.4441 93.8242C87.8655 64.4326 106.851 45.4116 119.598 50.7587C121.302 51.4735 123.085 52.8108 124.565 53.8397C127.986 56.8942 129.529 60.9734 129.529 71.4995V58.5128C130.426 59.8474 131.183 61.3436 131.773 63.0227C131.892 65.8483 133.783 70.5576 134.365 65.6128C133.926 54.8245 129.247 48.5537 122.931 44.8102L122.96 44.812C123.196 44.8273 123.379 44.8325 123.537 44.837C124.14 44.8544 124.384 44.8614 125.935 45.3755C120.983 43.2034 118.271 42.1929 115.3 42.0789C108.339 41.8122 100.252 45.8694 97.8096 47.73C85.6886 57.3562 74.8853 70.9482 66.4727 92.75Z" fill="#007FFF"/>
</g>
<defs>
<clipPath id="clip0_260_4330">
<rect width="200" height="200" fill="white"/>
</clipPath>
</defs>
</svg>
